<svg id="Warstwa_1" data-name="Warstwa 1" xmlns="http://www.w3.org/2000/svg" viewBox="0 0 2048 2048"><defs><style>.cls-1{fill:#b17f4a;stroke:#683c11;stroke-width:50px;}.cls-1,.cls-16,.cls-17,.cls-18{stroke-miterlimit:10;}.cls-2{fill:#fff;}.cls-3{fill:#1d1d1b;}.cls-4{fill:#a48a7b;}.cls-5{fill:#ead642;}.cls-6{fill:#b7a32c;}.cls-7{fill:#876e35;}.cls-8{fill:#1d1e1b;}.cls-9{fill:#f1cdb3;}.cls-10{fill:#c6b39e;}.cls-11{fill:#dadada;}.cls-12{fill:#9d9d9c;}.cls-13{fill:#b2b2b2;}.cls-14{fill:#c6c6c6;}.cls-15{fill:#dfd7a4;}.cls-16{fill:#f6f6f6;}.cls-16,.cls-17,.cls-18{stroke:#1d1d1b;}.cls-16,.cls-17{stroke-width:10px;}.cls-17{fill:#e41d1a;}.cls-18{fill:none;stroke-width:20px;}</style></defs><g id="happy-not-talking"><rect class="cls-1" x="474.55" y="474.55" width="1098.89" height="1098.89" rx="250"/><path class="cls-2" d="M713,1170.88h0l0,0Z"/><path class="cls-2" d="M750,1030.76c-.69-2.48-1.44-5-2.24-7.43C748.61,1025.79,749.36,1028.28,750,1030.76Z"/><path class="cls-2" d="M752.36,1039.92c-.41-1.79-.85-3.61-1.32-5.44C751.52,1036.31,752,1038.13,752.36,1039.92Z"/><path class="cls-2" d="M751.81,1118.37c-.1.33-.21.66-.31,1h0C751.6,1119,751.71,1118.7,751.81,1118.37Z"/><path class="cls-3" d="M713,1170.86l0,0h0Z"/><path class="cls-2" d="M896.4,997.56c-13.06,1.36-28.21,3.35-43,5.51.11-.42.21-.84.31-1.26Q875,999.4,896.4,997.56Z"/><path class="cls-2" d="M1024,992.11c-31.78.23-64,1.27-95.9,3.09Q976,992.13,1024,992.11Z"/><path class="cls-2" d="M1123.34,995.4c-32.95-1.94-66.22-3-99-3.29Q1073.76,992.11,1123.34,995.4Z"/><path class="cls-2" d="M726.08,1186.77c-1,.53-1.94,1-2.91,1.48C724.15,1187.79,725.11,1187.29,726.08,1186.77Z"/><path class="cls-2" d="M861.7,1364l-.39-.15h.05Z"/><path class="cls-2" d="M863.49,1365.19c-1-.42-2.08-.86-3.12-1.31h0l1.41.6Z"/><path class="cls-2" d="M1280.72,1244c-.26.31-.46.58-.61.8l0,.06-.75-1.22Z"/><path class="cls-2" d="M1343.76,1247.11a29.4,29.4,0,0,1-8.14,3.58,30.74,30.74,0,0,1-9.33.91,63.29,63.29,0,0,0,11.48-2.34A58.49,58.49,0,0,0,1343.76,1247.11Z"/><path class="cls-3" d="M723.17,1188.25c1-.46,2-1,2.91-1.48C725.11,1187.29,724.15,1187.79,723.17,1188.25Zm24.63-164.92c.8,2.46,1.55,4.95,2.24,7.43C749.36,1028.28,748.61,1025.79,747.8,1023.33Zm3.24,11.15c.47,1.83.91,3.65,1.32,5.44C752,1038.13,751.52,1036.31,751,1034.48Zm.45,84.88h0c.1-.32.21-.65.31-1C751.71,1118.7,751.6,1119,751.49,1119.36Zm109.87,244.51c-1.43-.56-2.85-1.13-4.27-1.71l4.22,1.7.39.15Zm-1,0h0l1.43.6Zm5.93,1.94-2.11-.82,1.49.59.62.24,1,.38,3.65,1.39Zm22.94,8.38.5.18,1.62.55Zm448.51-124.94a63.29,63.29,0,0,1-11.48,2.34,30.74,30.74,0,0,0,9.33-.91,29.4,29.4,0,0,0,8.14-3.58A58.49,58.49,0,0,1,1337.77,1249.26Zm-58.45-5.63.75,1.22,0-.06c.15-.22.35-.49.61-.8Z"/><path class="cls-4" d="M726.08,1186.77c-1,.53-1.94,1-2.91,1.48C724.15,1187.79,725.11,1187.29,726.08,1186.77Z"/><path class="cls-4" d="M861.7,1364l-.39-.15h.05Z"/><path class="cls-4" d="M863.49,1365.19c-1-.42-2.08-.86-3.12-1.31h0l1.41.6Z"/><path class="cls-4" d="M1280.72,1244c-.26.31-.46.58-.61.8l0,.06-.75-1.22Z"/><path class="cls-4" d="M1343.76,1247.11a29.4,29.4,0,0,1-8.14,3.58,30.74,30.74,0,0,1-9.33.91,63.29,63.29,0,0,0,11.48-2.34A58.49,58.49,0,0,0,1343.76,1247.11Z"/><path class="cls-3" d="M1343.55,1268.4a82.23,82.23,0,0,1-16.65,3.23,49,49,0,0,0,26.14-6.73A85.8,85.8,0,0,1,1343.55,1268.4ZM923.2,1405.5a632.9,632.9,0,0,1-73.65-24.82q-6-2.43-11.93-5a460.76,460.76,0,0,0,87.3,30.34c.85.22,1.71.42,2.56.62Zm-200-217.25c1-.46,2-1,2.91-1.48C725.11,1187.29,724.15,1187.79,723.17,1188.25ZM713,1170.86l0,0h0Z"/><path class="cls-5" d="M1319.73,1184a61.82,61.82,0,0,0-24.55.77c-20.53,4.93-32.1,19.5-39.32,28.59a101.37,101.37,0,0,0-20.42,47c-5.34,5.27-15.46,13.67-30.13,16.85-3.08.67-11.41,2.2-32.17-1.53-17.4-3.13-26-5.09-44.43-12.77-16-6.66-45.89-7.9-106.8,12.9-60.91-20.8-90.84-19.56-106.8-12.9-18.4,7.68-27,9.64-44.43,12.77-20.76,3.73-29.09,2.2-32.17,1.53-14.67-3.18-24.79-11.58-30.13-16.85a101.37,101.37,0,0,0-20.42-47c-7.22-9.09-18.79-23.66-39.32-28.59a62,62,0,0,0-20-1.38l40.76-54.55,8.69-11.62-3.68-5.82a.41.41,0,0,1-.05-.09,15.53,15.53,0,0,1-2.16-5.63c-.51-3.44,1.13-7.23,4.88-11.27.29-.32.61-.65.94-1l3.55-3.54-10.21-71.64-.37-2.59,60.92-9.37s0,0,0,0l-.6,2.08h0c0,.15-.09.31-.14.47s0,.09,0,.14c-.06.21-.12.42-.19.63-.14.47-.28.94-.43,1.41-.07.25-.14.5-.22.74s-.15.5-.23.75l-.13.4c-.18.56-.35,1.11-.53,1.66l-.36,1.08c-.22.67-.44,1.33-.67,2-.09.26-.18.53-.28.8-.22.65-.45,1.3-.68,2l-.11.3c-.24.67-.48,1.35-.73,2-.4,1.09-.81,2.16-1.23,3.24-.83,2.13-1.7,4.26-2.59,6.36A208.6,208.6,0,0,1,791,1084.08l-3,3.63.89,4.65a26.24,26.24,0,0,1-4.45,20.23l-3.5,4.92,2.71,5.39A110.15,110.15,0,0,0,821,1165.29c33.63,22.28,69.39,18.64,83.2,16l4.09-.77,2.34-3.45a117.39,117.39,0,0,1,40.91-37.41c18.37-9.94,35.76-12.64,51.83-13.39h0c4.54-.21,9-.27,13.29-.29h3.83c5.55,0,11.15,0,16.8.18,4.24.15,8.52.43,12.83.92a101.3,101.3,0,0,1,39.55,12.49,109.93,109.93,0,0,1,39.28,38.63l3,4.86,5.68-.06a182.64,182.64,0,0,0,73.72-16.2l3.27-1.48c13.17-5.9,24.54-11,34.57-21.67a82.27,82.27,0,0,0,12.56-17.5l3.4-6.35-4.95-5.24a28.92,28.92,0,0,1-7.78-22.58l.29-3-1.47-2.69c-5.07-9.26-9.85-18.83-14.22-28.44a435.81,435.81,0,0,1-20.12-53.27l1.67.13,24.23,1.91,33.41,2.63-.55,4-.67,4.83-2.71,19.55v.1l-5.94,42.7v.26l-1.17,8.48,1.6,1.51,2.15,2c5,4.69,7.19,9.07,6.6,13a15.88,15.88,0,0,1-2.27,5.82L1271,1115l-1.57,2.43,3.79,5Z"/><path class="cls-6" d="M1355.15,1236.48a44.32,44.32,0,0,1-11.39,10.63,58.49,58.49,0,0,1-6,2.15,63.29,63.29,0,0,1-11.48,2.34c-9.85-.48-19.38-4.91-25.68-7.83-2.52-1.17-4.52-2.1-6.36-2.74-7.57-2.63-11.83.91-13.53,3l-1.4-.36.75,1.22c-1.31,2-3.73,7.14,1,13.91a57.93,57.93,0,0,0,7.06,7.86c.77.75,1.6,1.53,2.48,2.35.42.4.85.79,1.3,1.2q3.45,3.16,7.94,7l4.56,3.87,3.32,2.77q2.57,2.13,5.4,4.44l1.62,1.32a550.48,550.48,0,0,1-58.71,41.79l-3.7,2.26-3.75,2.25q-2.47,1.49-5,2.93t-5,2.88c-1.68,1-3.35,1.89-5,2.82s-3.37,1.86-5.06,2.77-3.35,1.8-5,2.68l-.17.09-.22.12-2.82,1.46-1.85,1-.4.2-.1,0-.29.15-.32.16-.61.31-.73.37-.76.38-.32.16c-1.12.57-2.25,1.14-3.38,1.69l-3.92,1.93-3,1.42-3.46,1.64-2.68,1.25-2.33,1.07-1.45.66-.49.22c-1.16.53-2.32,1.06-3.49,1.57q-3.49,1.56-7,3.06l-3.52,1.49c-1,.41-1.91.8-2.87,1.19l-.51.21-.34.14c-1.12.47-2.24.92-3.36,1.37l-.66.27-.67.27h0l-2.2.88q-3.55,1.41-7.14,2.76c-1.2.46-2.39.91-3.59,1.35-1.51.56-3,1.12-4.55,1.66s-3,1.07-4.45,1.59c-.6.22-1.2.42-1.81.63l-2.7.93-1.84.62-2.72.91-1.41.47-3.69,1.2c-.73.24-1.46.48-2.19.7q-2.75.87-5.5,1.71c-1.06.33-2.12.65-3.19,1-.46.15-.93.28-1.39.42l-4.61,1.34-3.69,1c-37.23-35.84-101.35-46.39-149.92-29.51-9.76,3.39-25.07,8.89-39.31,22l-1.52-.42-2.85-.8c-1.46-.41-2.91-.82-4.36-1.25q-9.35-2.71-18.62-5.74l-1.81-.59-.71-.24-2.65-.88c-.5-.16-1-.33-1.51-.51l-.43-.14-1.62-.55-.5-.18q-4.66-1.59-9.3-3.27c-1.46-.52-2.91-1-4.36-1.59s-3.1-1.15-4.65-1.74l-3.65-1.39-1-.38h0l-.62-.23-1.49-.59-2.51-1-.39-.15-4.22-1.7q-5.62-2.28-11.19-4.68l-.1,0c-1.18-.55-2.36-1.1-3.54-1.67-.57-.27-1.13-.53-1.69-.81l-1.7-.82-.13-.06-.18-.09-4.5-2.22c-1.31-.66-2.62-1.32-3.92-2s-2.87-1.48-4.3-2.24l-2.38-1.27c-.86-.45-1.71-.91-2.56-1.38q-4-2.14-7.88-4.39l0,0-2.4-1.38-2.42-1.41c-1.62-1-3.22-1.9-4.82-2.87l-.37-.22c-1.53-.94-3.07-1.88-4.59-2.83l-.46-.28c-.92-.57-1.84-1.15-2.75-1.74q-2.22-1.4-4.43-2.85c-.92-.59-1.84-1.19-2.75-1.8s-2-1.3-3-2c-.6-.4-1.2-.8-1.79-1.21-.81-.54-1.61-1.09-2.41-1.65q-3.11-2.15-6.18-4.35l-2.28-1.64q-2.58-1.87-5.13-3.78l-1.87-1.41c-1.13-.85-2.25-1.71-3.37-2.57q-2.19-1.69-4.37-3.42c-.67-.52-1.33-1-2-1.58s-1.32-1-2-1.6h0l0,0a3.07,3.07,0,0,1-.29-.24l-2.23-1.82c-1-.8-2-1.61-2.92-2.42l-1.61-1.35-2.24-1.91c-1.43-1.21-2.84-2.44-4.25-3.68l3.31-3.28c1.16-1.16,2.26-2.28,3.32-3.36l1.84-1.9,1.74-1.82,1.57-1.67,1.61-1.76c.57-.62,1.11-1.23,1.64-1.83q1.7-1.92,3.09-3.63c.26-.3.5-.61.74-.9l.92-1.17c2.65-3.41,8.38-10.8,5.92-17.94a11.48,11.48,0,0,0-1.7-3.21,10,10,0,0,0-.69-.83c-1.88-2.08-6-5.08-13.25-3.17a66.92,66.92,0,0,0-7.58,2.78c-7.74,3.17-18.33,7.51-28.66,5.11-7.8-1.82-15-7.44-21.57-16.72l4-5.46L725,1188.17l1.05-1.4h0l2.5-3.35a62,62,0,0,1,20,1.38c20.53,4.93,32.1,19.5,39.32,28.59a101.37,101.37,0,0,1,20.42,47c5.34,5.27,15.46,13.67,30.13,16.85,3.08.67,11.41,2.2,32.17-1.53,17.4-3.13,26-5.09,44.43-12.77,16-6.66,45.89-7.9,106.8,12.9,60.91-20.8,90.84-19.56,106.8-12.9,18.41,7.68,27,9.64,44.43,12.77,20.76,3.73,29.09,2.2,32.17,1.53,14.67-3.18,24.79-11.58,30.13-16.85a101.37,101.37,0,0,1,20.42-47c7.22-9.09,18.79-23.66,39.32-28.59a61.82,61.82,0,0,1,24.55-.77l1.87,2.48.06.09h0l27.57,41.08Z"/><path class="cls-7" d="M1115.07,1393l-1.07.3h0a507.5,507.5,0,0,1-87.76,5.88c-13.94-.28-27.22-1.12-39.8-2.36l-20.49-3.14q-16.95-2.6-33.58-6.46-3.24-.86-6.48-1.75c14.24-13.1,29.55-18.6,39.31-22C1013.72,1346.63,1077.84,1357.18,1115.07,1393Z"/><path class="cls-8" d="M1308.23,998.69l-8.83-1.59-1.33-.24.82-5.89-8.5-.67-42.78-3.37h0l-27.11-2.14q-47.34-6.13-95-9.31l-.27,0q-16.53-1.1-33.06-1.84-10-.43-20-.76-23.89-.75-47.77-.75h-.38q-20.11,0-40.27.55-10,.27-20,.67-18.06.7-36.11,1.87l-.67,0h-.25l-.61,0q-15.39,1-30.75,2.31h-.14l-.24,0h-.12l-.18,0c-45.28,3.85-90.41,9.72-135,17.57l-1.48.26v0l-7.69,1.4-1.31.24-9.77,1.78c2.37,7.24,6.31,12.46,12.81,16a32.84,32.84,0,0,0,19.25,3.41l-.37-2.59,60.92-9.37s0,0,0,0l-.6,2.08h0c0,.15-.09.31-.14.47s0,.09,0,.14c-.06.21-.12.42-.19.63s-.16.56-.24.83c-.13.44-.27.88-.41,1.32-.07.25-.15.5-.23.75l-.13.4c-.18.56-.35,1.11-.53,1.66-.33,1-.67,2.06-1,3.08-.11.34-.22.68-.34,1-.19.56-.39,1.11-.58,1.66l-.07.19c-.27.74-.53,1.47-.81,2.21-.4,1.09-.81,2.16-1.23,3.24-.83,2.13-1.7,4.26-2.59,6.36A208.6,208.6,0,0,1,791,1084.08l-3,3.63.89,4.65a26.24,26.24,0,0,1-4.45,20.23l-3.5,4.92,2.71,5.39A110.15,110.15,0,0,0,821,1165.29c33.63,22.28,69.39,18.64,83.2,16l4.09-.77,2.34-3.45a117.39,117.39,0,0,1,40.91-37.41c18.37-9.94,35.76-12.64,51.83-13.39h0c4.54-.21,9-.27,13.29-.29h3.83c5.55,0,11.15,0,16.8.18,4.24.15,8.52.43,12.83.92a101.3,101.3,0,0,1,39.55,12.49,109.93,109.93,0,0,1,39.28,38.63l3,4.86,5.68-.06a182.64,182.64,0,0,0,73.72-16.2l3.27-1.48c13.17-5.9,24.54-11,34.57-21.67a82.27,82.27,0,0,0,12.56-17.5l3.4-6.35-4.95-5.24a28.92,28.92,0,0,1-7.78-22.58l.29-3-1.47-2.69c-5.07-9.26-9.85-18.83-14.22-28.44a435.81,435.81,0,0,1-20.12-53.27l1.67.13,24.23,1.91,33.41,2.63-.55,4-.67,4.83a42.74,42.74,0,0,0,5.92.43,31.24,31.24,0,0,0,15.07-3.63,25.76,25.76,0,0,0,12.29-14.46l-.7-.3ZM1235,1111a49,49,0,0,0,5.71,11.25,61.69,61.69,0,0,1-6.17,7.73c-7.29,7.76-16.06,11.69-28.18,17.13l-3.32,1.49a162.34,162.34,0,0,1-60.21,14.29,129.05,129.05,0,0,0-43.35-40.69,118.28,118.28,0,0,0-38-13.65h0q-3.77-.68-7.45-1.12c-2.56-.32-5.1-.57-7.6-.76h0c-9-.7-17.71-.68-26-.66-4.06,0-8.3,0-12.7.14-2.51.06-5.08.15-7.69.31s-5,.32-7.54.58A130.12,130.12,0,0,0,942,1122.12a137.09,137.09,0,0,0-45.44,40.21c-13.34,1.89-39.75,2.7-64.54-13.71a89.83,89.83,0,0,1-28-29.93A46.27,46.27,0,0,0,808.5,1106a45.78,45.78,0,0,0,.67-12.52,228.66,228.66,0,0,0,42.74-84.73c.51-1.88,1-3.76,1.44-5.66.11-.42.21-.84.31-1.26q21.33-2.41,42.74-4.25l.19,0q15.7-1.32,31.44-2.34h.07q47.94-3.08,95.9-3.09h.29q49.47,0,99,3.29,36,2.36,71.88,6.46c.63,2.23,1.29,4.47,2,6.69a456,456,0,0,0,21.59,57.57c4.18,9.18,8.71,18.32,13.51,27.22A49.13,49.13,0,0,0,1235,1111Z"/><path class="cls-9" d="M1245.51,1126.66a65.46,65.46,0,0,1-6.28,8.32c-7.42,8.36-16.34,12.59-28.67,18.45l-3.38,1.6a157.72,157.72,0,0,1-61.25,15.39c-11.59-18.34-26.74-33.4-44.11-43.81-29.29-17.55-56.44-17.49-80.44-17.44-22.17.06-49.75.12-79.81,17.34a142.36,142.36,0,0,0-46.23,43.29c-13.57,2-40.44,2.91-65.66-14.76a95,95,0,0,1-28.45-32.22,52.26,52.26,0,0,0,5.19-27.17,248.09,248.09,0,0,0,18.6-28.4A254.09,254.09,0,0,0,848.71,1009q1.44-5.29,2.66-10.67c15.1-2.33,30.51-4.47,43.8-5.93l.19,0q16-1.41,32-2.52h.07c32.48-2,65.24-3.07,97.57-3.32h.29c33.4.27,67.25,1.45,100.78,3.54q36.62,2.53,73.13,7c1.07,4,2.19,8,3.37,12a506,506,0,0,0,20.59,57.21c4.25,9.89,8.86,19.73,13.74,29.31a55.72,55.72,0,0,0,2.81,19A54,54,0,0,0,1245.51,1126.66Z"/><path class="cls-10" d="M1202.56,1009c-54.24-4.61-113.14-7.47-176.13-7.5-63.59,0-123,2.86-177.72,7.5.47-1.74.94-3.51,1.39-5.32s.87-3.56,1.27-5.35c15.1-2.33,30.51-4.47,43.8-5.93l.19,0q16-1.41,32-2.52h.07c32.48-2,65.24-3.07,97.57-3.32h.29c33.4.27,67.25,1.45,100.78,3.54q36.62,2.53,73.13,7C1200.26,1001,1201.38,1005,1202.56,1009Z"/><path class="cls-9" d="M1335.39,1170.94l-.7-.28h0l-2.4-3.18-39-51.62a34.22,34.22,0,0,0,1.94-7.22c1-6.6,0-16.29-9-26.64l5.63-40.68v-.07c0-.06,0-.12,0-.18.08-.32.15-.64.23-1s.15-.63.23-.94c.15-.62.31-1.24.47-1.86l.48-1.83.66-2.41s0,0,0,0l.69-2.4c.24-.8.47-1.58.71-2.35s.49-1.54.73-2.29c.14-.44.28-.88.43-1.31l.54-1.58.09-.26c.35-1,.71-2,1.07-2.93.21-.56.43-1.12.64-1.67,12.86,5.3,46.69,22.66,58.13,61.87C1366.38,1111.9,1358.06,1146.19,1335.39,1170.94Z"/><path class="cls-9" d="M757.77,1084.41c0,.8-.07,1.59-.12,2.39h0c-5.6,8.52-6.1,16.3-5.29,21.83a32.54,32.54,0,0,0,1,4.44q-.71,2.68-1.55,5.29c-.1.33-.21.66-.32,1l-37.94,50.75-.56.75c-22.61-24.75-30.92-59-21.64-90.76,10.64-36.48,40.66-54,55.15-60.59.23.66.46,1.32.68,2,.13.37.25.74.37,1.11s.17.48.25.73c.8,2.46,1.55,4.95,2.24,7.43.18.62.35,1.25.51,1.86s.33,1.24.49,1.86c.47,1.83.91,3.65,1.32,5.44.29,1.24.56,2.46.82,3.67s.47,2.22.69,3.3c0,.16.06.33.1.49.38,1.93.73,3.81,1,5.61.24,1.36.46,2.67.67,3.93.1.6.19,1.19.28,1.76s.17,1.13.25,1.68c.25,1.61.46,3.11.64,4.48A115.83,115.83,0,0,1,757.77,1084.41Z"/><path class="cls-10" d="M702,1068.12c-14.93,32-10.18,70.83,11.59,102l-.56.75c-22.61-24.75-30.92-59-21.64-90.76,10.64-36.48,40.66-54,55.15-60.59.23.66.46,1.32.68,2,.13.37.25.74.37,1.11C737.75,1027.44,714.75,1040.74,702,1068.12Z"/><path class="cls-10" d="M1335.39,1170.94l-.7-.28h0l-2.4-3.18c20.17-30.68,24.22-68.21,9.72-99.24-12.47-26.7-34.66-40-44.83-45.14l.09-.26c.35-1,.71-2,1.07-2.93.21-.56.43-1.12.64-1.67,12.86,5.3,46.69,22.66,58.13,61.87C1366.38,1111.9,1358.06,1146.19,1335.39,1170.94Z"/><path class="cls-11" d="M967.22,714.32l-.17,11.9-2,142.54-.1,7.45-.22,15.69Q919.45,894,874.27,899l-57.92-.4-33-.22c.23-1.53.48-3.07.74-4.61a334.69,334.69,0,0,1,9.72-41.41,291.69,291.69,0,0,1,28.11-63q2.92-4.92,6-9.71a291.86,291.86,0,0,1,27.11-35.38q2.65-3,5.4-5.86c.5-.54,1-1.08,1.54-1.61l8,.81L883.45,739l.85-.25Z"/><path class="cls-11" d="M1070.15,890.9q-21.37-.58-42.73-.55t-42.65.77l.22-15.85.1-7.41,2-147.05.17-12.41,36.57-10.77L1066,712.46l.23,9.88,3.39,145.72.17,7.5Z"/><path class="cls-11" d="M1265.1,901.64l-24-.16-33.33-.23c-39-4.81-78.29-8-117.57-9.66l-.35-14.94-.17-7.59-3.27-140.45-.21-9.05,46.47,16.36,30,1.13,24.76.94c.56.57,1.1,1.15,1.63,1.73a291.44,291.44,0,0,1,31.31,40c.84,1.29,1.67,2.58,2.48,3.89a291.35,291.35,0,0,1,27.27,55.71l3.29,10.49a332.83,332.83,0,0,1,10.45,43.69Q1264.53,897.57,1265.1,901.64Z"/><path class="cls-11" d="M1216,739.07l-.82,0,0-.06Z"/><path class="cls-12" d="M964.48,911.94l-.85,61.55c-17.4.66-34.81,1.55-52.11,2.67-36.94,2.4-120.89,15.78-132.31,19.77-8.22,2.86-14,3.29-17.65,1.32-6.07-3.28-5.92-22.06-5.73-48,.06-7.53.66-9.83,1.14-10.44a20.33,20.33,0,0,1,4.66-2.54A1421.53,1421.53,0,0,1,964.48,911.94Z"/><path class="cls-12" d="M1072.06,973.06c-16-.51-32.07-.84-48-1h-.14q-20.07.15-40.29.72l.86-61.68q21.5-.71,43-.79t43.14.56Z"/><path class="cls-12" d="M965,876.21l-.22,15.69Q919.45,894,874.27,899q-46.56,5.1-92.68,13.23c.07-.71.15-1.43.24-2.15a341.27,341.27,0,0,1,34.52-11.48C858.69,886.76,910.58,879.31,965,876.21Z"/><path class="cls-12" d="M1070.15,890.9q-21.37-.58-42.73-.55t-42.65.77l.22-15.85c28.15-1,56.73-.95,84.8.29Z"/><path class="cls-12" d="M1263.73,909.3q-27.88-4.59-56-8c-39-4.81-78.29-8-117.57-9.66l-.35-14.94c56,3.61,109.06,11.89,151.25,24.83Q1253,905.13,1263.73,909.3Z"/><path class="cls-12" d="M1286.44,997.25c-3.65,2-9.43,1.54-17.64-1.32-5.83-2-11.51-4.65-15.65-6.57-2.8-1.29-4.65-2.14-6.15-2.65l-1-.33-1-.13c-36-4.36-72.5-7.75-108.51-10.09q-22.12-1.44-44.4-2.37l-1.45-62.19a1421,1421,0,0,1,186.24,20.22c3.07,1.65,5.76,2.8,8,3.76a26,26,0,0,1,6.15,3.18c.4.5,1.09,2.51,1.14,10.44C1292.36,975.2,1292.5,994,1286.44,997.25Z"/><path class="cls-13" d="M965.08,868.76l-.1,7.45-.22,15.69Q919.45,894,874.27,899q-46.56,5.1-92.68,13.23c.07-.71.15-1.43.24-2.15.43-3.85.95-7.76,1.55-11.7.23-1.53.48-3.07.74-4.61A1099.71,1099.71,0,0,1,965.08,868.76Z"/><path class="cls-13" d="M1070.15,890.9q-21.37-.58-42.73-.55t-42.65.77l.22-15.85.1-7.41q22.65-.83,46.44-.7,19.44.12,38.09.9l.17,7.5Z"/><path class="cls-13" d="M1266.14,909.69l-2.39-.39h0q-27.88-4.59-56-8c-39-4.81-78.29-8-117.57-9.66l-.35-14.94-.17-7.59a1101,1101,0,0,1,174.18,24.4q.7,4.11,1.27,8.18C1265.49,904.34,1265.84,907,1266.14,909.69Z"/><path class="cls-14" d="M967.64,684.05l-.17,12.36-.25,17.91-.17,11.9c-49,16.23-80.93,49.4-91.07,60.58-16.38,1.51-34.46,2.52-54,2.59q2.92-4.92,6-9.71a291.86,291.86,0,0,1,27.11-35.38q2.65-3,5.4-5.86l8.58.11,1-.91A238.5,238.5,0,0,1,967.64,684.05Z"/><path class="cls-14" d="M1066.23,722.34a176.75,176.75,0,0,0-79.1-1.53l.17-12.41.22-16.4.18-12.39a226.42,226.42,0,0,1,77.53-.09l.31,13.25.46,19.69Z"/><path class="cls-14" d="M1222.82,783.57c-20-.38-39.08-1.26-57.3-2.49-9-9.31-36.92-36.7-79.14-52.47l-.21-9.05-.51-21.94-.32-13.67a241.85,241.85,0,0,1,97,52.3l3.27-.1c.6.61,1.19,1.22,1.76,1.84s1.1,1.15,1.63,1.73a291.44,291.44,0,0,1,31.31,40C1221.18,781,1222,782.26,1222.82,783.57Z"/><path class="cls-14" d="M1216,739.07l-.82,0,0-.06Z"/><path class="cls-14" d="M1426,770h-.06l0-.17Z"/><path class="cls-13" d="M967.78,673.77l-.14,10.28-.17,12.36a228.73,228.73,0,0,0-83.17,42.33c-3.06,2.47-5.48,4.56-7.24,6.12l-21.95-.56q2.65-3,5.4-5.86c.5-.54,1-1.08,1.54-1.61q7.94-8.3,16.56-16c4-3.27,8.12-6.44,12.31-9.43C901.92,703.58,928.72,684.48,967.78,673.77Z"/><path class="cls-13" d="M1065.54,692.77a219.37,219.37,0,0,0-78-.77l.18-12.39.11-8.3a133.41,133.41,0,0,1,77.26,1.32l.16,6.89Z"/><path class="cls-13" d="M1189,739.72l-22.43.54c-1.06-.88-2.38-2-4-3.21a229.72,229.72,0,0,0-77-39.43l-.32-13.67-.2-8.77c36.39,10.9,61.41,28.73,71.94,36.25,5.77,4.12,11.42,8.56,16.78,13.19q6.06,5.6,11.78,11.53c.6.61,1.19,1.22,1.76,1.84S1188.5,739.14,1189,739.72Z"/><path class="cls-13" d="M1216,739.07l-.82,0,0-.06Z"/><path class="cls-3" d="M1215.12,739l0,.06.82,0ZM1426,769.84l0,.17h.06Z"/><path class="cls-15" d="M734.34,708.87,647,800.78a170.15,170.15,0,0,0,54.13,35.74c20.22,8.3,55.63,22.84,80.17,7.66,17.72-10.95,15.87-28.8,32.68-63.31A241.1,241.1,0,0,1,860.47,716Z"/><path class="cls-15" d="M1311.64,707.71,1399,799.63a170.15,170.15,0,0,1-54.13,35.74c-20.22,8.3-55.63,22.84-80.17,7.66-17.72-10.95-15.87-28.8-32.68-63.32a241,241,0,0,0-46.47-64.85Z"/><path class="cls-2" d="M622,768.61l42.9,51.06,23-11.74-8.17-26,26-3.07q-2-11.75-4.09-23.49l28.6-4.59q-4.35-8.94-8.68-17.87l23-3.07q-8.17-9.7-16.34-19.4L692,706.82l-40.34-71Q636.82,702.23,622,768.61Z"/><path class="cls-2" d="M1426,770.9,1383.11,822l-23-11.74,8.17-26.05-26-3.06,4.08-23.49L1317.75,753q4.34-8.94,8.68-17.88l-23-3.06,16.34-19.41,36.25-3.57,40.35-71Z"/><path class="cls-3" d="M1435.86,744.76c-5.48-32.88-12.47-68.86-20.77-107l-.82-3.78-3.16-2.24c-8.69-6.18-16.57-7.85-23.4-5-10.37,4.35-11.51,15.4-12.6,26.08-.7,6.79-1.49,14.47-4.35,21.62-4.23,10.55-13.11,19.79-26.42,27.5l-152.76,4.76-7.37.23-1.41-1.28-.15.17c-4.52-3.73-9.19-7.33-14-10.73-17-12.11-68.62-49-144.7-49s-127.73,36.87-144.7,49c-4.69,3.35-9.29,6.89-13.75,10.57h0l-.06.06L864,707l-1.17,0-159.16-5c-13.31-7.71-22.19-17-26.42-27.5-2.86-7.15-3.65-14.83-4.35-21.62-1.1-10.68-2.23-21.73-12.59-26.08-6.84-2.88-14.72-1.21-23.41,5L633.73,634l-.82,3.78c-8.3,38.08-15.29,74.07-20.77,107-1,5.85-2.6,15.63.11,27.47,7.73,33.71,42.51,51.12,61.19,60.47,29.53,14.78,62.55,22.82,98.33,24-1.46,5.35-2.73,10.53-3.83,15.5a327.88,327.88,0,0,0-6.66,42.24c-2.12,1.12-4.08,2-6,2.76a43,43,0,0,0-10.9,6c-8.41,6.81-8.5,17.8-8.56,25.84,0,4.72-.07,9.16-.06,13.35,0,15.61.56,27.57,3.48,36.48,2.37,7.24,6.31,12.46,12.81,16a32.84,32.84,0,0,0,19.25,3.41,63.45,63.45,0,0,0,14.48-3.45c3.54-1.24,22.68-4.78,46.06-8.49,5.88-.93,12-1.88,18.28-2.79h0l3.21-.47c14.84-2.16,30-4.15,43-5.51l.19,0c5.92-.61,11.4-1.1,16.23-1.41q7.59-.5,15.21-.93h.07c31.92-1.82,64.12-2.86,95.9-3.09h.29c32.83.25,66.1,1.35,99,3.29q5.92.35,11.84.73c21.63,1.4,43.44,3.19,65.22,5.35q20.5,2,40.92,4.48l1.44.65,2,.92c4.26,2,10.7,4.94,17.45,7.29a66.51,66.51,0,0,0,12.73,3.24,42.74,42.74,0,0,0,5.92.43,31.24,31.24,0,0,0,15.07-3.63,25.76,25.76,0,0,0,12.29-14.46c3.38-9,4-21.48,4-38,0-4.18,0-8.63-.06-13.35-.06-8-.13-19-8.56-25.83a42.76,42.76,0,0,0-10.9-6.05c-1.91-.81-3.87-1.64-6-2.76a337,337,0,0,0-10.5-57.74l1.41,0c35.24-1.32,67.78-9.34,96.92-23.93,18.68-9.35,53.46-26.76,61.19-60.47C1438.46,760.39,1436.84,750.61,1435.86,744.76Zm-19.61,23a37.8,37.8,0,0,1-1.1,3.85c-3.41,10.08-10.67,18.27-19.08,25-9.4,7.49-20.22,13.09-28.68,17.34l-1.78.89c-28.31,14.16-60.31,21.55-95.17,22a310.68,310.68,0,0,0-24.15-53q-4.36-7.65-9.19-15a310.32,310.32,0,0,0-21.94-29.67l0-.06c-1-1.25-2.1-2.48-3.17-3.71q-3.9-4.55-8-8.94l107.11-3.33,14.72-.46,24-.75,2.1-1.15c18.61-10.23,31.2-23.26,37.4-38.75a2,2,0,0,0,.08-.22c3.84-9.67,4.82-19.16,5.6-26.79.3-2.9.68-6.57,1.19-8.88l.25.12q4.45,20.58,8.37,40.27c4.19,21,7.89,41.11,11.08,60.17l.24,1.42C1417,753.27,1418.08,759.77,1416.25,767.77Zm-259.17-56.33c5.77,4.12,11.42,8.56,16.78,13.19q6.06,5.6,11.78,11.53c.6.61,1.19,1.22,1.76,1.84s1.1,1.15,1.63,1.73a291.44,291.44,0,0,1,31.31,40c.84,1.29,1.67,2.58,2.48,3.89a291.35,291.35,0,0,1,27.27,55.71l3.29,10.49a332.83,332.83,0,0,1,10.45,43.69q.7,4.11,1.27,8.18c.39,2.7.74,5.39,1,8.05l-2.39-.39h0q-27.88-4.59-56-8c-39-4.81-78.29-8-117.57-9.66l-.35-14.94-.17-7.59-3.27-140.45-.21-9-.51-21.94-.32-13.67-.2-8.77C1121.53,686.09,1146.55,703.92,1157.08,711.44ZM985,875.28l.1-7.41,2-147,.17-12.41.22-16.4.18-12.39.11-8.3a133.41,133.41,0,0,1,77.26,1.32l.16,6.89.31,13.25.46,19.69.23,9.88,3.39,145.72.17,7.5.36,15.34q-21.37-.58-42.73-.55t-42.65.77Zm-1.2,87.13.71-51.26q21.5-.71,43-.79t43.14.56l1.2,51.49.25,10.45v.21q-24-.77-47.77-1h-.38q-20.05.15-40.27.72v-.17ZM862.05,736.84q7.94-8.3,16.56-16c4-3.27,8.12-6.44,12.31-9.43,11-7.85,37.8-27,76.86-37.66l-.14,10.28-.17,12.36-.25,17.91-.17,11.9-2,142.54-.1,7.45-.22,15.69Q919.45,894,874.27,899q-46.56,5.1-92.68,13.23c.07-.71.15-1.43.24-2.15.43-3.85.95-7.76,1.55-11.7.23-1.53.48-3.07.74-4.61a334.69,334.69,0,0,1,9.72-41.41,291.69,291.69,0,0,1,28.11-63q2.92-4.92,6-9.71a291.86,291.86,0,0,1,27.11-35.38q2.65-3,5.4-5.86C861,737.91,861.52,737.37,862.05,736.84ZM678.37,812.79c-8.25-4.18-18.25-9.58-27-16.62h0c-9.23-7.46-17-16.76-19.65-28.4a40.29,40.29,0,0,1-1-8.49A63.48,63.48,0,0,1,631.86,748q2.75-16.41,6-33.85,2.29-12.3,4.81-25,3.3-16.7,7-34.1c.62-2.94,1.26-5.9,1.9-8.87l.25-.12c.51,2.31.89,6,1.19,8.88.24,2.33.5,4.83.85,7.46A80,80,0,0,0,658.68,682c4.45,11.13,12.2,21,23.12,29.45h0a107.73,107.73,0,0,0,12.91,8.53l.55.31h0l15.52,2h.05l9.69.3.78,0h0l17.59.55h0l105.45,3.28q-3.63,3.9-7.13,7.93c-1.09,1.24-2.16,2.5-3.22,3.76-1.56,1.84-3.08,3.7-4.59,5.57q-9.71,12.09-18.2,25.11-6.47,9.93-12.14,20.3a310.72,310.72,0,0,0-21.2,47.73c-35-.39-67.1-7.77-95.5-22ZM847.51,983.71l-1.46.21c-2.59.38-5.17.76-7.72,1.15l-1.58.24-.25,0c-4.89.75-9.68,1.5-14.28,2.25h0l-1.86.31-.51.08-2.55.42-1.43.24-.23,0-.13,0h0l-.18,0h-.08l-1.89.32a2.2,2.2,0,0,1-.37.06l-1.11.19-2.26.39-2.07.36-4.37.78-2.56.46-5.58,1-1.39.27-2.17.43-1.15.23-3.07.64-.56.12-.64.14c-.63.14-1.22.27-1.78.41l-1.08.25-.21,0-.43.11-.42.11c-.27.06-.53.13-.77.2h-.05l-.41.11-.65.19-.3.09-.27.09-.2.06-.24.08c-8.22,2.86-14,3.29-17.65,1.32a3.21,3.21,0,0,1-.46-.29,4.49,4.49,0,0,1-.44-.35,5.65,5.65,0,0,1-.73-.8,2.48,2.48,0,0,1-.19-.26l0,0a3.21,3.21,0,0,1-.21-.3c-.1-.16-.21-.33-.3-.51s-.18-.33-.26-.5-.15-.31-.22-.48-.14-.32-.21-.49-.19-.48-.27-.73-.14-.4-.2-.61-.1-.31-.14-.47c-.11-.37-.22-.77-.31-1.17-.05-.17-.09-.36-.13-.54l0-.11-.06-.31c0-.21-.09-.43-.13-.66s-.11-.56-.16-.86c0-.07,0-.15,0-.23s-.08-.46-.11-.7-.09-.54-.12-.82-.07-.55-.11-.84-.05-.37-.07-.55c-.1-.82-.18-1.68-.26-2.57l-.06-.72c-.05-.54-.09-1.1-.12-1.67s-.07-1.11-.1-1.69-.05-1-.07-1.44c0-.65-.06-1.32-.08-2s-.05-1.49-.07-2.26,0-1.78,0-2.7c0-.42,0-.85,0-1.27s0-.87,0-1.31c0-1.49,0-3,0-4.61,0-4.14,0-8.55.06-13.2.06-7.53.66-9.83,1.14-10.44a20.33,20.33,0,0,1,4.66-2.54A1421.53,1421.53,0,0,1,964.48,912l-.7,50.46-.15,10.92v.17q-5.46.21-10.92.45l-7.48.34-7.69.37-1.39.07-8.63.47-.67,0h-.25l-.61,0-6.81.4q-3.84.22-7.66.48l-1.77.12-.45,0-1.38.11-2.34.19-3.79.33-2.3.22-4.25.43h-.14l-.24,0h-.12l-.18,0q-.52.08-1.08.12l-.18,0-4.39.48-1.62.19-2.72.31-2.79.33-4.91.6-.72.09-3.12.4-.66.08-3.94.52-4,.53-4,.54-4,.56h0l-5.19.74Zm429.36-51.88c3.07,1.65,5.76,2.8,8,3.76a26,26,0,0,1,6.15,3.18c.4.5,1.09,2.51,1.14,10.44,0,4.65.07,9.06.06,13.2,0,1.55,0,3.07,0,4.54l0,2c0,1.39,0,2.73-.08,4,0,.42,0,.84,0,1.25v0c0,.82-.06,1.62-.1,2.4s-.07,1.54-.12,2.29c0,.5-.06,1-.09,1.46-.14,1.92-.32,3.71-.53,5.34,0,.36-.1.71-.16,1.06s-.1.68-.16,1c-.11.65-.24,1.28-.37,1.88,0,.2-.09.4-.14.59-.1.45-.22.88-.34,1.29-.06.2-.12.4-.19.6s-.07.22-.11.33l-.24.65c-.11.29-.22.56-.34.81a3,3,0,0,1-.18.36l0,.06,0,.08c-.07.13-.13.25-.2.36s-.2.35-.31.51a5.33,5.33,0,0,1-.32.46,3.88,3.88,0,0,1-.26.31l-.12.14-.27.27a1.9,1.9,0,0,1-.21.19l0,0,0,0-.25.19a4.43,4.43,0,0,1-.46.29c-3.65,2-9.43,1.54-17.64-1.32-5.83-2-11.51-4.65-15.65-6.57l-.88-.4-.83-.38c-.26-.13-.51-.24-.76-.35l-2-.9-.54-.22-.26-.1-.25-.09h0l-.57-.21-1-.33-1-.13c-36-4.36-72.5-7.75-108.51-10.09l-11.07-.69-.27,0q-4.59-.27-9.19-.51l-5.4-.28c-1.16-.07-2.33-.12-3.5-.18l-1.22-.06-.67,0-4.27-.2-8.81-.4v-.18l-.27-11.21-1.18-50.8A1421,1421,0,0,1,1276.87,931.83ZM1425.94,770l0-.17,0,.16Z"/><circle class="cls-16" cx="1026.53" cy="736.72" r="21.65"/><circle class="cls-17" cx="1026.53" cy="940.75" r="21.65"/><circle class="cls-16" cx="1026.53" cy="832.26" r="21.65"/><circle class="cls-9" cx="1027.19" cy="1100.27" r="27.83"/><path class="cls-3" d="M1027.19,1064.94a35.36,35.36,0,0,0-34.67,42.11c.21,1.09.48,2.15.79,3.2a35.3,35.3,0,0,0,10.05,16.07h0a35.34,35.34,0,0,0,57.33-14.85c.32-1,.6-1.92.83-2.91h0a35.35,35.35,0,0,0-34.35-43.62Zm19.29,41.74h0a18,18,0,0,1-1.27,3,20.3,20.3,0,0,1-36.2-.38,18.19,18.19,0,0,1-1.25-3.14,19.81,19.81,0,0,1-.88-5.89,20.33,20.33,0,1,1,40.65,0A20,20,0,0,1,1046.48,1106.68Z"/><path class="cls-3" d="M1027.59,1212.22c-34.2,0-56.6-20.45-62.75-26.83l14.41-13.87c4.84,5,22.75,21.38,50,20.68,24.26-.6,40.24-14.2,46-20l14.23,14.06c-7.46,7.54-28.19,25.16-59.72,25.94Z"/><path class="cls-18" d="M865,1078.69c.84-1.88,12.77-27.44,41.65-32.09,28.3-4.56,47.44,15.08,49,16.72"/><path class="cls-18" d="M1181.27,1078.69c-.84-1.88-12.77-27.44-41.64-32.09-28.31-4.56-47.45,15.08-49,16.72"/><path class="cls-3" d="M1378.81,1227.68,1351,1183.5c26.75-29.81,36.45-70.85,25.32-109-13.4-45.93-50.9-66.77-68.07-74.1a25.76,25.76,0,0,1-12.29,14.46,31.24,31.24,0,0,1-15.07,3.63,42.74,42.74,0,0,1-5.92-.43l-2.71,19.55v.1l-5.94,42.7v.26l-1.17,8.48,1.6,1.51,2.15,2c5,4.69,7.19,9.07,6.6,13a15.88,15.88,0,0,1-2.27,5.82L1271,1115l-1.57,2.43,3.79,5,46.53,61.61,1.87,2.48.06.09h0l27.57,41.08,5.91,8.8a44.32,44.32,0,0,1-11.39,10.63,29.4,29.4,0,0,1-8.14,3.58,30.74,30.74,0,0,1-9.33.91c-9.85-.48-19.38-4.91-25.68-7.83-2.52-1.17-4.52-2.1-6.36-2.74-7.57-2.63-11.83.91-13.53,3-.26.31-.46.58-.61.8l0,.06c-1.31,2-3.73,7.14,1,13.91a57.93,57.93,0,0,0,7.06,7.86c.77.75,1.6,1.53,2.48,2.35.42.4.85.79,1.3,1.2q3.45,3.16,7.94,7l4.56,3.87,3.32,2.77q2.57,2.13,5.4,4.44l1.62,1.32a550.48,550.48,0,0,1-58.71,41.79c-1.23.76-2.47,1.52-3.7,2.26l-3.75,2.25q-2.47,1.49-5,2.93c-1.66,1-3.33,1.93-5,2.88s-3.35,1.89-5,2.82-3.37,1.86-5.06,2.77-3.35,1.8-5,2.68l-.17.09-.22.12-2.82,1.46-1.85,1-.4.2-.1,0-.29.15-.32.16-.61.31-.73.37-.73.38h0l-.32.16c-1.12.57-2.25,1.14-3.38,1.69l-3.92,1.93-3,1.42-3.46,1.64-2.68,1.25-2.33,1.07-1.41.66h0l-.49.22c-1.16.53-2.32,1.06-3.49,1.57q-3.49,1.56-7,3.06l-3.52,1.49c-1,.41-1.91.8-2.87,1.19l-.51.21-.34.14c-1.12.47-2.24.92-3.36,1.37l-.66.27-.67.27h0l-2.2.88q-3.55,1.41-7.14,2.76c-1.2.46-2.39.91-3.59,1.35-1.51.56-3,1.12-4.55,1.66s-3,1.07-4.45,1.59c-.6.22-1.2.42-1.81.63l-2.7.93-1.84.62-2.72.91-1.41.47-3.69,1.2c-.73.24-1.46.48-2.19.7q-2.75.87-5.5,1.71c-1.06.33-2.12.65-3.19,1-.46.15-.93.28-1.39.42l-4.61,1.34c-1.23.36-2.46.71-3.69,1l-1.07.3h0a507.5,507.5,0,0,1-87.76,5.88c-13.94-.28-27.22-1.12-39.8-2.36l-20.49-3.14q-16.95-2.6-33.58-6.46-3.24-.86-6.48-1.75l-1.52-.42-2.85-.8c-1.46-.41-2.91-.82-4.36-1.25q-9.35-2.71-18.62-5.74l-1.81-.59-.71-.24-2.65-.88c-.5-.16-1-.33-1.51-.51l-.43-.14-1.62-.55-.5-.18q-4.66-1.59-9.3-3.27c-1.46-.52-2.91-1-4.36-1.59s-3.1-1.15-4.65-1.74l-3.65-1.39-1-.38-.62-.24-1.49-.59-2.51-1-.39-.15-4.22-1.7q-5.62-2.28-11.19-4.68l-.1,0c-1.18-.55-2.36-1.1-3.54-1.67-.57-.27-1.13-.53-1.69-.81l-1.7-.82-.13-.06-.18-.09-4.5-2.22c-1.31-.66-2.62-1.32-3.92-2s-2.87-1.48-4.3-2.24l-2.38-1.27c-.86-.45-1.71-.91-2.56-1.38q-4-2.14-7.88-4.39l0,0c-.8-.44-1.6-.91-2.4-1.38l-2.42-1.41c-1.62-1-3.22-1.9-4.82-2.87l-.37-.22c-1.53-.94-3.07-1.88-4.59-2.83l-.46-.28c-.92-.57-1.84-1.15-2.75-1.74q-2.22-1.4-4.43-2.85c-.92-.59-1.84-1.19-2.75-1.8s-2-1.3-3-2c-.6-.4-1.2-.8-1.79-1.21-.81-.54-1.61-1.09-2.41-1.65q-3.11-2.15-6.18-4.35l-2.28-1.64q-2.58-1.87-5.13-3.78l-1.87-1.41c-1.13-.84-2.25-1.7-3.37-2.57-1.47-1.12-2.92-2.26-4.37-3.42-.67-.52-1.33-1-2-1.58s-1.32-1-2-1.6h0l0,0a3.07,3.07,0,0,1-.29-.24l-2.23-1.82c-1-.8-2-1.6-2.92-2.42l-1.61-1.35-2.24-1.91c-1.43-1.21-2.84-2.44-4.25-3.68l3.31-3.28c1.16-1.16,2.26-2.28,3.32-3.36l1.84-1.9,1.74-1.82,1.57-1.67,1.61-1.76c.57-.62,1.11-1.23,1.64-1.83q1.7-1.92,3.09-3.63c.26-.3.5-.61.74-.9l.92-1.17c2.65-3.41,8.38-10.8,5.92-17.94a11.48,11.48,0,0,0-1.7-3.21,10,10,0,0,0-.69-.83c-1.88-2.08-6-5.08-13.25-3.17a66.92,66.92,0,0,0-7.58,2.78c-7.74,3.17-18.33,7.51-28.66,5.11-7.8-1.82-15-7.44-21.57-16.72l4-5.46L725,1188.17l1.05-1.4c-1,.53-1.94,1-2.91,1.48,1-.46,1.94-1,2.91-1.48h0l2.5-3.35,40.76-54.55,8.69-11.62-3.68-5.82a.41.41,0,0,1-.05-.09,15.53,15.53,0,0,1-2.16-5.63c-.51-3.44,1.13-7.23,4.88-11.27.29-.32.61-.65.94-1l3.55-3.54-10.21-71.64a32.84,32.84,0,0,1-19.25-3.41c-6.5-3.51-10.44-8.73-12.81-16l-1.51.28.87,1.92c-17.8,7.92-53.46,28.86-66.46,73.41-11.14,38.14-1.44,79.18,25.31,109l-27.84,44.18-7.31,11.61,5.18,5.63c.32.35.66.71,1,1.07a83.67,83.67,0,0,0,53.78,25.71,57.4,57.4,0,0,1-16.35,7.35l-19.54,5.31,9.76,7.46,6.33,4.83,2.25,1.7q4.42,3.35,8.9,6.61a639.1,639.1,0,0,0,79.42,49.46l.1,0h0c3.13,1.65,6.24,3.26,9.39,4.86s6.37,3.17,9.58,4.72l.52.25q10.56,5.1,21.31,9.8h0c1.21.54,2.39,1.07,3.61,1.59q5.94,2.55,11.93,5a632.9,632.9,0,0,0,73.65,24.82l4.28,1.15q8.16,2.16,16.38,4.09c-.11.17-.23.33-.33.5,6.81,1.72,14.07,3.35,21.76,4.8a371.61,371.61,0,0,0,121.63,2.83c10.29-1.46,19.75-3.24,28.28-5.13l5.44-1.49a570.22,570.22,0,0,0,99.2-38q6.6-3.26,13.12-6.69c1.68-.88,3.36-1.78,5-2.68l.84-.46c1.18-.64,2.36-1.28,3.53-1.93q4.7-2.58,9.34-5.26l4.56-2.66q4.85-2.85,9.63-5.8l.06,0a639.26,639.26,0,0,0,65.82-41.59q4.43-3.18,8.79-6.45,2.71-2,5.4-4.07l3-2.32,13-10-19.53-5.31a57.15,57.15,0,0,1-16.35-7.35l.73-.07a82.23,82.23,0,0,0,16.65-3.23,85.8,85.8,0,0,0,9.49-3.5,83.52,83.52,0,0,0,22.33-14.46c2.13-1.92,4-3.79,5.59-5.53l5.16-5.63Zm-43.42-56.74-.7-.28h0l-2.4-3.18-39-51.62a34.22,34.22,0,0,0,1.94-7.22c1-6.6,0-16.29-9-26.64l5.63-40.68v-.07c0-.06,0-.12,0-.18.07-.33.15-.64.23-1s.15-.63.23-.94c.15-.62.31-1.24.47-1.86l.48-1.83.66-2.41s0,0,0,0l.69-2.4c.24-.8.47-1.58.71-2.35s.49-1.54.73-2.29c.14-.44.28-.88.43-1.31l.54-1.58.09-.26c.35-1,.71-2,1.07-2.93.21-.56.43-1.12.64-1.67,12.86,5.3,46.69,22.66,58.13,61.87C1366.38,1111.9,1358.06,1146.19,1335.39,1170.94Zm-644-90.84c10.64-36.48,40.66-54,55.15-60.59.23.66.46,1.32.68,2s.43,1.22.62,1.84c.81,2.46,1.56,4.95,2.24,7.43.18.62.35,1.25.51,1.86s.33,1.24.49,1.86c.48,1.83.92,3.65,1.32,5.44.29,1.24.56,2.46.82,3.67s.47,2.22.69,3.3c0,.16.06.33.1.49.38,1.93.73,3.81,1,5.61.24,1.36.46,2.67.67,3.93.1.6.19,1.19.28,1.76s.17,1.13.25,1.68c.25,1.61.46,3.11.64,4.48a115.83,115.83,0,0,1,.91,19.57c0,.8-.07,1.59-.12,2.39h0c-5.6,8.52-6.1,16.3-5.29,21.83a32.54,32.54,0,0,0,1,4.44q-.71,2.68-1.55,5.29c-.1.33-.21.66-.31,1h0l-37.94,50.75-.56.75,0,0h0l0,0C690.38,1146.11,682.07,1111.86,691.35,1080.1Zm169,283.78h0l1.41.6,1.69.71C862.44,1364.77,861.41,1364.33,860.37,1363.88Zm25.28,9.79-2.71-1,2.74,1Z"/></g></svg>