<svg id="Warstwa_1" data-name="Warstwa 1" xmlns="http://www.w3.org/2000/svg" viewBox="0 0 2048 2048"><defs><style>.cls-1{fill:#1d1e1b;opacity:0.1;}.cls-2{fill:#fff;}.cls-3{fill:#7d4e24;}.cls-4{fill:#683c11;}.cls-5{fill:#603a1a;}.cls-6{fill:#706f6f;}.cls-16,.cls-7{fill:#b2b2b2;}.cls-8{fill:#9d9d9c;}.cls-9{fill:#575756;}.cls-10{fill:#432918;}.cls-11{fill:#2d1b11;}.cls-12{fill:#634e42;}.cls-13{fill:#1d1d1b;}.cls-14{fill:#936037;}.cls-15,.cls-17{fill:#878787;}.cls-16,.cls-17,.cls-30,.cls-31,.cls-32{stroke:#1d1d1b;stroke-miterlimit:10;}.cls-16,.cls-17{stroke-width:20px;}.cls-18{fill:#8e8e8d;}.cls-19{fill:#a48a7b;}.cls-20{fill:#ead642;}.cls-21{fill:#b7a32c;}.cls-22{fill:#876e35;}.cls-23{fill:#ca9e67;}.cls-24{fill:#d1d0d1;}.cls-25{fill:#f1cdb3;}.cls-26{fill:#c6b39e;}.cls-27{fill:#dadada;}.cls-28{fill:#c6c6c6;}.cls-29{fill:#dfd7a4;}.cls-30{fill:#f6f6f6;}.cls-30,.cls-31,.cls-32{stroke-width:10px;}.cls-31{fill:#e41d1a;}.cls-32{fill:#009fe3;}.cls-33{fill:#6ec6d9;}</style></defs><g id="sad"><ellipse class="cls-1" cx="1024" cy="1848.16" rx="554.94" ry="58.36"/><path class="cls-2" d="M1346.34,1712.55V1646.3h23.27V1524.9h-38.44v-29h19.92V1225.4l-22.24-10v-78.9h11.52q21.06,34.47,42.13,68.94l147.06-124.85A283.78,283.78,0,0,0,1453,939.69L1138.4,937v.36h-11.7V937l-314.56,2.72a283.78,283.78,0,0,0-76.6,140.94l147.07,124.85,42.12-68.94h11.52v78.9l-22.24,10v270.53h19.93v29H895.49v121.4h23.27v66.25c-36.07-3.49-70.26,14.62-85.94,45.19-19.92,38.83.55,77.27,2.3,80.42h230.71a35.87,35.87,0,0,0,19.19-10.41c14.06-15,7.81-36.69,7.46-37.84v-151a40.22,40.22,0,0,0,21.45-9.88,40.65,40.65,0,0,0,12.77-24.34v-29.54h11.7v29.54a40.62,40.62,0,0,0,12.78,24.34,40.2,40.2,0,0,0,21.44,9.88v151c-.35,1.15-6.59,22.8,7.46,37.84a35.86,35.86,0,0,0,19.2,10.41H1430c1.74-3.15,22.22-41.59,2.29-80.42C1416.6,1727.17,1382.42,1709.06,1346.34,1712.55Z"/><path class="cls-3" d="M1518.47,1076.93l-117,99.29-16.58,14.08-39-63.75h-27.12v95.37l22.24,10v135H924v-135l22.24-10v-95.37H919.12l-39,63.75L746.63,1076.93a273.7,273.7,0,0,1,69.73-127.27l300.34-2.6v.27h31.7v-.27l300.33,2.6a273.6,273.6,0,0,1,69.74,127.27Z"/><path class="cls-4" d="M1415,1164.82l-30,25.48-39-63.75h-27.12v95.37l22.24,10v135h-12.41l-39.38-22.59v-169c-9.46-36.09.73-69.12,23-82.22,14-8.22,29-6,34.22-5.1C1377.79,1093.05,1403.65,1123.67,1415,1164.82Z"/><path class="cls-5" d="M853.22,962.54A181.94,181.94,0,0,0,786.58,1069l-46-2.29a263.63,263.63,0,0,1,57.45-111.83Z"/><rect class="cls-6" x="970.67" y="911.51" width="108.97" height="475.94"/><rect class="cls-6" x="1183.56" y="911.51" width="108.97" height="475.94"/><rect class="cls-7" x="1266.07" y="961.65" width="26.46" height="405.19"/><rect class="cls-7" x="970.67" y="955.93" width="26.46" height="405.19"/><polygon class="cls-3" points="1341.09 1409.23 1341.09 1485.93 1321.16 1485.93 1321.16 1514.9 943.93 1514.9 943.93 1485.93 924.01 1485.93 924.01 1409.23 1341.09 1409.23"/><rect class="cls-8" x="916.03" y="1330.63" width="435.06" height="120.11"/><rect class="cls-9" x="928.28" y="1421.48" width="435.06" height="38.48"/><path class="cls-8" d="M1338.85,1153.24V1209l22.24,10v147.92h-20v-135l-22.24-10v-95.37H1346l39,63.75,133.54-113.37a273.6,273.6,0,0,0-69.74-127.27l-300.33-2.6v.27h-31.7v-.27l-300.34,2.6a273.7,273.7,0,0,0-69.73,127.27L880.17,1190.3l39-63.75h27.13v95.37l-22.24,10v135H904V1218.92l22.24-10v-55.71L885,1220.67,724.51,1084.38l1.25-5.85a293.84,293.84,0,0,1,79.3-145.9l2.89-2.9,4.1,0L1126.54,927l1.86-.05v-.18l4.15.09,4.15-.09v.18l1.86.05,314.49,2.72,4.1,0,2.89,2.9a293.71,293.71,0,0,1,79.29,145.9l1.26,5.85-160.54,136.29Z"/><path class="cls-10" d="M1438.73,1843l-2.86,5.14H1198.29l-1-.19a45.54,45.54,0,0,1-24.55-13.39c-13.76-14.72-13-35.15-10.15-46V1646.89a50.21,50.21,0,0,1-18.15-10.41,49.25,49.25,0,0,1-11.92-16.36,49.15,49.15,0,0,1-11.93,16.36,50.17,50.17,0,0,1-18.14,10.41v141.64c2.85,10.9,3.6,31.33-10.15,46a45.57,45.57,0,0,1-24.55,13.39l-1,.19H837.54c12.81-3.69,25-10.49,33-20,20.46-24.23.4-50.06,20.42-81.53,23.88-37.53,74.33-35.27,73.54-48-.55-8.88-25.81-20.55-55.78-21.29v-21H885.49V1514.9h494.12v141.4h-23.27v45.82a99.23,99.23,0,0,1,45.28,11.41,92.59,92.59,0,0,1,39.56,39.64C1463.31,1796.31,1441.31,1838.36,1438.73,1843Z"/><path class="cls-11" d="M964.54,1698.63c.79,12.73-49.66,10.47-73.54,48-20,31.47,0,57.3-20.42,81.53-8,9.51-20.23,16.31-33,20h-8.31l-2.86-5.15c-2.58-4.65-24.57-46.71-2.45-89.84a92.59,92.59,0,0,1,39.56-39.64,99.17,99.17,0,0,1,45.28-11.41v-24.78C938.73,1678.08,964,1689.75,964.54,1698.63Z"/><path class="cls-11" d="M1337.3,1716.76c4,15.07,22.77,12.2,36.86,29.87,20.38,25.55-.61,56.62,20.42,81.53,8,9.51,20.23,16.31,33,20h8.31l2.86-5.15c2.58-4.65,24.57-46.71,2.45-89.84a92.59,92.59,0,0,0-39.56-39.64,99.17,99.17,0,0,0-45.28-11.41v-24.78C1345.63,1688.05,1333.69,1703.14,1337.3,1716.76Z"/><rect class="cls-12" x="827.18" y="1806.63" width="260.6" height="25.34"/><rect class="cls-12" x="1176.96" y="1806.63" width="260.6" height="25.34"/><path class="cls-13" d="M1401.62,1713.53a99.23,99.23,0,0,0-45.28-11.41V1656.3h23.27V1514.9h-38.45v-9h19.93v-287l-22.24-10v-55.72l41.2,67.43,160.54-136.29-1.26-5.85A293.71,293.71,0,0,0,1460,932.63l-2.89-2.9-4.1,0L1138.56,927l-1.86-.05v-.18l-4.15.09-4.15-.09v.18l-1.86.05L812.05,929.7l-4.1,0-2.89,2.9a293.84,293.84,0,0,0-79.3,145.9l-1.25,5.85L885,1220.67l41.21-67.42V1209l-22.24,10v287h19.92v9H885.49v141.4h23.27v45.82a99.17,99.17,0,0,0-45.28,11.41,92.59,92.59,0,0,0-39.56,39.64c-22.12,43.13-.13,85.19,2.45,89.84l2.86,5.15h237.58l1-.19a45.57,45.57,0,0,0,24.55-13.39c13.75-14.72,13-35.15,10.15-46V1646.89a50.17,50.17,0,0,0,18.14-10.41,49.15,49.15,0,0,0,11.93-16.36,49.25,49.25,0,0,0,11.92,16.36,50.21,50.21,0,0,0,18.15,10.41v141.64c-2.86,10.9-3.61,31.33,10.15,46a45.54,45.54,0,0,0,24.55,13.39l1,.19h237.58l2.86-5.14c2.58-4.66,24.58-46.71,2.45-89.85A92.59,92.59,0,0,0,1401.62,1713.53Zm22.07,114.63H1200.33a25.43,25.43,0,0,1-12.95-7.23c-10.19-10.91-5.24-27.94-5.2-28.09l.44-1.44V1630.2L1174,1629a30.26,30.26,0,0,1-16.08-7.4,30.69,30.69,0,0,1-9.47-17.65v-38.8h-31.7V1604a30.66,30.66,0,0,1-9.48,17.64,30.22,30.22,0,0,1-16.08,7.4l-8.66,1.17v161.22l.42,1.4c0,.17,5,17.2-5.2,28.11a25.39,25.39,0,0,1-13,7.23H841.4c-4.78-11.17-13.62-38.69.31-65.86,13.79-26.87,44.37-42.86,76.09-39.8l11,1.06V1636.3H905.49V1534.9h38.44v-49H924v-254l22.24-10v-95.37H919.12l-39,63.75L746.63,1076.93a273.7,273.7,0,0,1,69.73-127.27l300.34-2.6v.27h31.7v-.27l300.33,2.6a273.6,273.6,0,0,1,69.74,127.27L1384.93,1190.3l-39-63.75h-27.12v95.37l22.24,10v254h-19.93v49h38.45v101.4h-23.27v87.26l11-1.06c31.72-3.08,62.3,12.93,76.08,39.8C1437.32,1789.48,1428.48,1817,1423.69,1828.16Z"/><circle class="cls-14" cx="818.41" cy="1396.1" r="333.53"/><path class="cls-3" d="M737.82,1073.61c-140,37.75-241.28,157.66-252.57,296.64-12.59,155,89.2,303.1,245.42,349.83-131.82-62.8-213.08-198.19-205.28-341.11C532.61,1246.73,614.94,1128.55,737.82,1073.61Z"/><path class="cls-13" d="M818.41,1739.63a342.46,342.46,0,1,1,133.72-27A341.33,341.33,0,0,1,818.41,1739.63Zm0-667.06c-178.4,0-323.53,145.13-323.53,323.53S640,1719.63,818.41,1719.63s323.53-145.14,323.53-323.53S996.81,1072.57,818.41,1072.57Z"/><circle class="cls-7" cx="818.41" cy="1396.1" r="250"/><path class="cls-15" d="M740.62,1161.69c-7,2.51-141.26,53.53-167.74,187.66-21.71,109.93,38.55,227.3,149.36,281.11-5.84-4-131.59-94.31-120.25-248.94C612.45,1238.79,730.46,1167.58,740.62,1161.69Z"/><path class="cls-13" d="M818.41,1656.1A260,260,0,1,1,1002.26,1580,258.33,258.33,0,0,1,818.41,1656.1Zm0-500c-132.34,0-240,107.66-240,240s107.66,240,240,240,240-107.66,240-240S950.75,1156.1,818.41,1156.1Z"/><path class="cls-16" d="M1037.53,1269.68,599.29,1522.52"/><path class="cls-16" d="M570.44,1364.09,918,1166.73"/><path class="cls-16" d="M703.06,1618.84l347.57-197.36"/><circle class="cls-17" cx="818.41" cy="1396.1" r="54.64"/><path class="cls-8" d="M851.16,860.41c-35,8.6-61.36,29.17-66.16,54.77-.81,4.31-2.6,14.63,2.52,24.65,12.38,24.22,53.9,24.63,74.84,21.31,32.45-5.14,53.73-25.31,62.81-35.23Z"/><path class="cls-18" d="M867,876c0,10.79-33.56,8.91-48.26,32.17-12.14,19.21-2,40.68-10,43.66-7.14,2.68-23.37-11.75-26-28.34-4.78-29.66,33.82-65.93,63.58-61.28C855.82,863.69,867,869.75,867,876Z"/><path class="cls-13" d="M842.73,972.63c-24,0-52.8-6.13-64.11-28.25-6.78-13.26-4.27-26.64-3.45-31,5.4-28.81,33.6-52.81,73.6-62.64l5.09-1.25,85.55,75.7-6.86,7.51c-13.41,14.66-36.2,33.22-68.62,38.36A137.79,137.79,0,0,1,842.73,972.63Zm5.82-101.18c-29.19,8.45-50,26-53.72,45.58-.62,3.31-2.08,11.06,1.59,18.25,9,17.65,44.28,19.17,64.38,16,21.67-3.43,38.29-14.33,49.8-24.89Z"/><path class="cls-8" d="M1419.74,860.41c35,8.6,61.36,29.17,66.16,54.77.81,4.31,2.6,14.63-2.52,24.65-12.39,24.22-53.9,24.63-74.84,21.31-32.45-5.14-53.73-25.31-62.81-35.23Z"/><path class="cls-18" d="M1401.46,876c0,10.79,33.56,8.91,48.26,32.17,12.14,19.21,2,40.68,10,43.66,7.14,2.68,23.37-11.75,26-28.34,4.78-29.66-33.82-65.93-63.57-61.28C1412.65,863.69,1401.44,869.75,1401.46,876Z"/><path class="cls-13" d="M1428.17,972.63A137.89,137.89,0,0,1,1407,971c-32.42-5.14-55.21-23.7-68.62-38.36l-6.86-7.51,85.55-75.7,5.09,1.25c40,9.83,68.2,33.83,73.6,62.64.82,4.4,3.33,17.78-3.45,31C1481,966.5,1452.2,972.63,1428.17,972.63Zm-67.87-46.26c11.51,10.56,28.13,21.46,49.8,24.89,20.1,3.19,55.35,1.67,64.37-16,3.68-7.19,2.22-14.94,1.6-18.25-3.67-19.58-24.53-37.13-53.72-45.58Z"/><path class="cls-2" d="M827.8,745.28h0l0,0Z"/><path class="cls-2" d="M862.59,597.73c.81,2.46,1.56,4.95,2.24,7.43C864.14,602.68,863.39,600.19,862.59,597.73Z"/><path class="cls-2" d="M867.15,614.32c-.41-1.79-.85-3.61-1.32-5.44C866.31,610.71,866.75,612.53,867.15,614.32Z"/><path class="cls-2" d="M866.28,693.76c.11-.33.22-.66.32-1-.1.33-.21.66-.31,1Z"/><path class="cls-13" d="M827.78,745.26l0,0h0Z"/><path class="cls-2" d="M968.45,576.21q21.33-2.41,42.74-4.25c-13.06,1.36-28.21,3.35-43.05,5.51C968.25,577.05,968.35,576.63,968.45,576.21Z"/><path class="cls-2" d="M1042.89,569.6q47.94-3.08,95.9-3.09C1107,566.74,1074.81,567.78,1042.89,569.6Z"/><path class="cls-2" d="M1238.13,569.8c-33-1.94-66.22-3-99.05-3.29Q1188.55,566.51,1238.13,569.8Z"/><path class="cls-2" d="M834.43,871.37q-5.79-4.22-11.09-8.27c1-.28,2.18-.62,3.43-1l-1.21,1.15,7.86,7.23Z"/><path class="cls-2" d="M840.87,761.17c-1,.53-1.94,1-2.91,1.48C838.94,762.19,839.9,761.69,840.87,761.17Z"/><path class="cls-2" d="M1047.11,961.65a442.38,442.38,0,0,1-86.42-29.77q5.56,2.4,11.19,4.68A619,619,0,0,0,1047.11,961.65Z"/><path class="cls-2" d="M1395.51,818.39c-.26.31-.46.58-.61.8l0,.06-.75-1.22Z"/><path class="cls-2" d="M1458.55,821.51a29.4,29.4,0,0,1-8.14,3.58,30.74,30.74,0,0,1-9.33.91,63.29,63.29,0,0,0,11.48-2.34A58.49,58.49,0,0,0,1458.55,821.51Z"/><path class="cls-13" d="M1394.11,818l.75,1.22,0-.06c.15-.22.35-.49.61-.8Zm58.45,5.63a63.29,63.29,0,0,1-11.48,2.34,30.74,30.74,0,0,0,9.33-.91,29.4,29.4,0,0,0,8.14-3.58A58.49,58.49,0,0,1,1452.56,823.66ZM1042.27,981.05q8.16,2.16,16.38,4.09c.11-.17.22-.34.34-.51Q1050.59,983,1042.27,981.05Zm-1.64-21.15c-1.46-.4-2.91-.8-4.37-1.22l-4.36-1.25q-8.72-2.53-17.35-5.33c-1.27-.4-2.53-.82-3.79-1.24q-4.17-1.36-8.31-2.81l-2.72-.95-4.68-1.66-4.66-1.7L985.75,942q-4.65-1.75-9.26-3.59l-.34-.14c-1.43-.56-2.85-1.13-4.27-1.71q-5.62-2.28-11.19-4.68,2.41,1.13,4.84,2.21l.75.34c1.5.67,3,1.34,4.52,2l4.35,1.86h0l3.12,1.31,3.14,1.29,1.8.72c1.26.51,2.53,1,3.8,1.5q2.43.95,4.87,1.86l.87.32c1.66.62,3.31,1.23,5,1.82l2.74,1,3.11,1.08q2.48.86,5,1.68l.54.18,4.87,1.57h0l5.46,1.68c1.82.56,3.65,1.09,5.49,1.62s3.55,1,5.33,1.5l.39.11q2.65.72,5.32,1.41c1.55.41,3.1.8,4.66,1.18l.55.14,1.67.41,4.24,1Q1043.87,960.8,1040.63,959.9ZM833.42,870.45l-3.27-3-4.59-4.22,1.21-1.15c-1.25.41-2.4.75-3.43,1,2,1.53,4.06,3.08,6.16,4.63,1.61,1.21,3.26,2.42,4.93,3.64Zm32.86-176.69h0c.1-.32.21-.65.31-1C866.5,693.1,866.39,693.43,866.28,693.76Zm-.45-84.88c.47,1.83.91,3.65,1.32,5.44C866.75,612.53,866.31,610.71,865.83,608.88Zm-3.24-11.15c.8,2.46,1.55,4.95,2.24,7.43C864.15,602.68,863.4,600.19,862.59,597.73ZM838,762.65c1-.46,1.95-.95,2.91-1.48C839.9,761.69,838.94,762.19,838,762.65Z"/><path class="cls-19" d="M840.87,761.17c-1,.53-1.94,1-2.91,1.48C838.94,762.19,839.9,761.69,840.87,761.17Z"/><path class="cls-19" d="M1047.11,961.65a442.38,442.38,0,0,1-86.42-29.77q5.56,2.4,11.19,4.68A619,619,0,0,0,1047.11,961.65Z"/><path class="cls-19" d="M1395.51,818.39c-.26.31-.46.58-.61.8l0,.06-.75-1.22Z"/><path class="cls-19" d="M1458.55,821.51a29.4,29.4,0,0,1-8.14,3.58,30.74,30.74,0,0,1-9.33.91,63.29,63.29,0,0,0,11.48-2.34A58.49,58.49,0,0,0,1458.55,821.51Z"/><path class="cls-13" d="M827.78,745.26l0,0h0ZM838,762.65c1-.46,1.95-.95,2.91-1.48C839.9,761.69,838.94,762.19,838,762.65ZM964.34,955.08q-6-2.43-11.93-5a462.33,462.33,0,0,0,89.86,31A634.58,634.58,0,0,1,964.34,955.08Zm494-112.28a82.23,82.23,0,0,1-16.65,3.23,49,49,0,0,0,26.14-6.73A85.8,85.8,0,0,1,1458.34,842.8Z"/><path class="cls-13" d="M1068.71,1023.08c.11.86.26,1.69.43,2.51C1069,1024.77,1068.83,1023.93,1068.71,1023.08Z"/><path class="cls-19" d="M1069.14,1025.59c-.17-.82-.32-1.65-.43-2.51C1068.83,1023.93,1069,1024.77,1069.14,1025.59Z"/><path class="cls-20" d="M1434.52,758.42a61.82,61.82,0,0,0-24.55.77c-20.53,4.93-32.1,19.5-39.32,28.59a101.37,101.37,0,0,0-20.42,47c-5.34,5.27-15.46,13.67-30.13,16.85-3.08.67-11.41,2.2-32.17-1.53-17.4-3.13-26-5.09-44.43-12.77-16-6.66-45.89-7.9-106.8,12.9-60.91-20.8-90.84-19.56-106.8-12.9-18.4,7.68-27,9.64-44.43,12.77-20.76,3.73-29.09,2.2-32.17,1.53-14.67-3.18-24.79-11.58-30.13-16.85a101.37,101.37,0,0,0-20.42-47c-7.22-9.09-18.79-23.66-39.32-28.59a62,62,0,0,0-20-1.38l40.76-54.55,8.69-11.62-3.68-5.82a.41.41,0,0,1,0-.09,15.53,15.53,0,0,1-2.16-5.63c-.51-3.44,1.13-7.23,4.88-11.27.29-.32.61-.65.94-1l3.55-3.54-10.58-74.23,60.92-9.37a208.95,208.95,0,0,1-40.86,77.77l-3,3.63.89,4.65A26.24,26.24,0,0,1,899.2,687l-3.5,4.92,2.71,5.39a110.15,110.15,0,0,0,37.37,42.39c33.63,22.28,69.39,18.64,83.2,16l4.09-.77,2.34-3.45a117.39,117.39,0,0,1,40.91-37.41c25.1-13.59,48.4-13.65,69-13.69,22.13,0,45-.1,69.18,13.59a109.93,109.93,0,0,1,39.28,38.63l3,4.86,5.68-.06a182.64,182.64,0,0,0,73.72-16.2l3.27-1.48c13.17-5.9,24.54-11,34.57-21.67a82.27,82.27,0,0,0,12.56-17.5l3.4-6.35-5-5.24a28.92,28.92,0,0,1-7.78-22.58l.29-3-1.47-2.69c-5.07-9.26-9.85-18.83-14.22-28.44A435.81,435.81,0,0,1,1331.65,579l1.67.13,57.64,4.54-.55,4L1387,612v.1l-5.94,42.7v.26l-1.17,8.48,1.6,1.51,2.15,2c5,4.69,7.19,9.07,6.6,13a15.88,15.88,0,0,1-2.27,5.82l-2.21,3.44-1.57,2.43,3.79,5Z"/><path class="cls-21" d="M1469.94,810.88a44.32,44.32,0,0,1-11.39,10.63,58.49,58.49,0,0,1-6,2.15,63.29,63.29,0,0,1-11.48,2.34c-9.85-.48-19.38-4.91-25.68-7.83-2.52-1.17-4.52-2.1-6.36-2.74-7.57-2.63-11.83.91-13.53,3l-1.4-.36.75,1.22c-1.31,2-3.73,7.14,1,13.91a57.93,57.93,0,0,0,7.06,7.86c5.7,5.53,14.45,13.09,26.62,23a550.48,550.48,0,0,1-58.71,41.79q-13.55,8.37-27.53,15.91a549.19,549.19,0,0,1-113.42,45.72c-37.23-35.84-101.35-46.39-149.92-29.51-9.76,3.39-25.07,8.89-39.31,22a617.27,617.27,0,0,1-68.75-23.34q-5.62-2.28-11.19-4.68l-.1,0q-5.91-2.75-11.74-5.67a443.61,443.61,0,0,1-94-63.32c9.15-9,15.66-16,19.78-21.32,2.65-3.41,8.38-10.8,5.92-17.94a11.48,11.48,0,0,0-1.7-3.21,10,10,0,0,0-.69-.83c-1.88-2.08-6-5.08-13.25-3.17a66.92,66.92,0,0,0-7.58,2.78c-7.74,3.17-18.33,7.51-28.66,5.11-7.8-1.82-15-7.44-21.57-16.72l32.71-45,1-1.4h0l2.5-3.35a62,62,0,0,1,20,1.38c20.53,4.93,32.1,19.5,39.32,28.59a101.37,101.37,0,0,1,20.42,47c5.34,5.27,15.46,13.67,30.13,16.85,3.08.67,11.41,2.2,32.17-1.53,17.4-3.13,26-5.09,44.43-12.77,16-6.66,45.89-7.9,106.8,12.9,60.91-20.8,90.84-19.56,106.8-12.9,18.41,7.68,27,9.64,44.43,12.77,20.76,3.73,29.09,2.2,32.17,1.53,14.67-3.18,24.79-11.58,30.13-16.85a101.37,101.37,0,0,1,20.42-47c7.22-9.09,18.79-23.66,39.32-28.59a61.82,61.82,0,0,1,24.55-.77l1.87,2.48.06.09h0Z"/><path class="cls-22" d="M1199.78,989.4a51.69,51.69,0,0,1,5.86,33c0,.22-.07.44-.12.66-.09.5-.18,1-.28,1.47s-.21,1-.32,1.44-.21.88-.33,1.31a1.05,1.05,0,0,1-.06.24c-.12.41-.23.82-.35,1.22s-.27.89-.42,1.33-.29.87-.45,1.29-.27.74-.41,1.1-.37,1-.58,1.44-.33.77-.5,1.14-.36.8-.56,1.19-.36.73-.54,1.09-.37.73-.57,1.08-.39.71-.59,1.05-.39.68-.59,1l-.61,1c-.2.32-.4.63-.61.94-.37.56-.74,1.1-1.11,1.61s-.56.76-.83,1.12-.69.9-1,1.32-.81,1-1.21,1.44c-.19.23-.39.45-.58.66l-.64.69c-.35.38-.7.74-1,1.08-.61.62-1.18,1.16-1.68,1.61q-.33.32-.63.57l-8.46,7.43,8.38,7.52a19.57,19.57,0,0,1-9.67,34l-17.48,3.19,11.8,13.29a51.86,51.86,0,0,1,6.34,60.16c-5.41,4.74-20.5,16-41.84,15.37-23-.59-38-14.2-42.88-19.45a52.72,52.72,0,0,1-6.39-34,51.88,51.88,0,0,1,11.14-24.68l10.12-12.38-15.56-3.68c-10.4-2.46-18.12-10.72-18.35-19.64-.21-8.11,6.09-14.1,7.35-15.22l8.81-7.8-9.11-7.44c-.13-.1-.79-.65-1.77-1.61l-.3-.3a46.75,46.75,0,0,1-4.9-5.8l-.64-.92c-.46-.69-.93-1.41-1.39-2.17l-.33-.56c-.37-.63-.73-1.29-1.08-2-.14-.27-.28-.55-.41-.83s-.39-.82-.58-1.24-.27-.6-.4-.91l-.12-.29c-.13-.3-.25-.61-.36-.92a5.37,5.37,0,0,1-.21-.56c-.13-.34-.25-.69-.37-1l-.45-1.4c-.11-.42-.23-.84-.34-1.27l-.06-.23c-.1-.38-.19-.77-.27-1.16,0-.12-.06-.25-.08-.38-.17-.82-.31-1.66-.43-2.51,0-.28-.07-.56-.11-.85l-.06-.57a37.4,37.4,0,0,1-.07-6.19,40.22,40.22,0,0,1,12.16-25.58,37.36,37.36,0,0,1,4.39-3.78l6.09-4.39,11.32-8.16,2.43-1.75-24.17-3.7q-16.95-2.6-33.58-6.46-3.24-.85-6.48-1.75c14.24-13.1,29.55-18.6,39.31-22,48.57-16.88,112.69-6.33,149.92,29.51q-12,3.38-24.25,6.19l-13.31,3.07,2.11,3.58,4.83,8.18C1199.41,988.73,1199.6,989.05,1199.78,989.4Z"/><path class="cls-13" d="M840.87,761.17c-1,.53-1.94,1-2.91,1.48C838.94,762.19,839.9,761.69,840.87,761.17Z"/><path class="cls-13" d="M1042.27,981.05a462.33,462.33,0,0,1-89.86-31q5.94,2.55,11.93,5A634.58,634.58,0,0,0,1042.27,981.05Z"/><path class="cls-13" d="M1047.11,961.65a442.38,442.38,0,0,1-86.42-29.77q5.56,2.4,11.19,4.68A619,619,0,0,0,1047.11,961.65Z"/><path class="cls-13" d="M1333.18,927l-.49.26.5-.25ZM942,595.15c-.24.67-.48,1.35-.73,2,.3-.8.59-1.6.88-2.4.19-.55.39-1.1.58-1.66.47-1.35.93-2.72,1.37-4.09Q943.13,592.11,942,595.15Zm2.76-8.19c.22-.69.43-1.38.64-2.07.16-.53.32-1.06.47-1.6C945.54,584.52,945.17,585.74,944.79,587Zm388.39,340-.49.26.5-.25ZM945.43,584.89c.16-.53.32-1.06.47-1.6-.36,1.23-.73,2.45-1.11,3.67C945,586.27,945.22,585.58,945.43,584.89Zm-3.25,9.88c.19-.55.39-1.1.58-1.66.47-1.35.93-2.72,1.37-4.09q-1,3.09-2.1,6.13C942.09,595,942.13,594.9,942.18,594.77Zm-2.11,5.64c-.83,2.13-1.7,4.26-2.59,6.36C938.38,604.67,939.24,602.54,940.07,600.41ZM1493.6,802.08l-27.83-44.18c26.75-29.81,36.45-70.85,25.32-109-13.4-45.93-50.9-66.77-68.07-74.1l-.7-.3.7-1.41-8.83-1.59-1.33-.24.82-5.89-8.5-.67-42.81-3.37h0l-27.11-2.14q-47.34-6.13-95-9.31l-.27,0q-16.53-1.1-33.06-1.84-10-.43-20-.76-23.89-.75-47.77-.75h-.38q-20.12,0-40.27.55-10,.27-20,.67-18.06.71-36.11,1.87l-.67,0h-.25l-.61,0q-15.39,1-30.75,2.31h-.14c-45.46,3.85-90.77,9.74-135.59,17.62l-1.48.26v0l-7.69,1.4-1.31.24L854,573.29l-1.51.28.87,1.92c-17.8,7.92-53.46,28.86-66.46,73.41-11.14,38.14-1.44,79.18,25.31,109l-27.84,44.18-7.31,11.61,5.18,5.63c.32.35.66.71,1,1.07a83.67,83.67,0,0,0,53.78,25.71,57.4,57.4,0,0,1-16.35,7.35l-19.54,5.31,9.76,7.46,6.33,4.83,2.25,1.7q4.43,3.35,8.9,6.61a639.1,639.1,0,0,0,79.42,49.46l.1,0h0c3.13,1.65,6.24,3.26,9.39,4.86s6.37,3.17,9.58,4.72l.52.25q10.56,5.1,21.31,9.8h0c1.21.54,2.39,1.07,3.61,1.59q5.94,2.55,11.93,5a634.58,634.58,0,0,0,77.93,26q8.32,2,16.72,3.58c-.12.17-.23.34-.34.51a58.12,58.12,0,0,0-10.13,28.91,57.06,57.06,0,0,0-.08,6.9c.8,16.54,8.68,29,14.85,36.36a38.21,38.21,0,0,0-7.13,22.82c.36,13.79,8.48,26.27,20.88,33.47a70.65,70.65,0,0,0-7.49,48.11c.4,2,.87,3.93,1.39,5.76a75.08,75.08,0,0,0,4.21,11.26c1.15,2.46,2.31,4.58,3.34,6.32l.5.85.66.74c.34.38.75.82,1.21,1.3a83.43,83.43,0,0,0,14,11.67,82.13,82.13,0,0,0,8.66,5.09l.41.21c.62.32,1.26.63,1.91.93,2.23,1.06,4.58,2.05,7.06,2.94.83.3,1.67.59,2.53.87a79.64,79.64,0,0,0,10.44,2.61,78.82,78.82,0,0,0,11.71,1.18c.71,0,1.4,0,2.1,0,28.5,0,47.84-15.09,54.93-21.7l1-1,.72-1.19a72.94,72.94,0,0,0,10.34-39.66c-.06-1.66-.18-3.37-.36-5.1s-.42-3.37-.71-5a70.85,70.85,0,0,0-2.44-9.7,72.81,72.81,0,0,0-6.5-14.34,39.41,39.41,0,0,0,12.45-55.37,70.67,70.67,0,0,0,16.28-34.91q.39-2.41.6-4.74a70.47,70.47,0,0,0-3.93-30.6,570.26,570.26,0,0,0,112.57-41.54q6.6-3.25,13.12-6.69c1.68-.88,3.36-1.78,5-2.68l.84-.46c1.18-.64,2.36-1.28,3.53-1.93q4.69-2.58,9.34-5.26l4.56-2.66q4.85-2.85,9.63-5.8l.06,0a639.26,639.26,0,0,0,65.82-41.59q4.43-3.18,8.79-6.45,2.72-2,5.4-4.07l3-2.32,13-10-19.53-5.31A57.15,57.15,0,0,1,1441,846.1l.73-.07a82.23,82.23,0,0,0,16.65-3.23,85.8,85.8,0,0,0,9.49-3.5,83.52,83.52,0,0,0,22.33-14.46c2.13-1.92,4-3.79,5.59-5.53l5.16-5.63ZM1471.89,654.5c9.28,31.8,1,66.09-21.71,90.84l-.7-.28h0l-41.37-54.8A34.22,34.22,0,0,0,1410,683c1-6.6,0-16.29-9-26.64l5.63-40.68v-.07c0-.06,0-.12,0-.18.07-.33.15-.64.23-1s.15-.63.23-.94c.15-.62.31-1.24.47-1.86l.48-1.83.66-2.41s0,0,0-.05l.69-2.4c.24-.8.47-1.58.71-2.35s.48-1.54.73-2.29c.14-.44.28-.88.43-1.31q1.14-3.37,2.34-6.44C1426.62,597.93,1460.45,615.29,1471.89,654.5ZM1011.19,572l.19,0q15.71-1.32,31.44-2.34h.07q47.94-3.08,95.9-3.09h.29q49.47,0,99.05,3.29,36,2.36,71.88,6.46a457.12,457.12,0,0,0,23.55,64.26c4.18,9.18,8.71,18.32,13.51,27.22a48.67,48.67,0,0,0,8.47,28.92,61.69,61.69,0,0,1-6.17,7.73c-7.29,7.76-16.06,11.69-28.18,17.13l-3.32,1.49a162.34,162.34,0,0,1-60.21,14.29,129.05,129.05,0,0,0-43.35-40.69c-28.79-16.3-55.48-16.24-79.07-16.19-21.79.05-48.9.11-78.44,16.1a137.09,137.09,0,0,0-45.44,40.21c-13.34,1.89-39.75,2.7-64.54-13.71a89.83,89.83,0,0,1-28-29.93,46.27,46.27,0,0,0,4.43-12.71,45.78,45.78,0,0,0,.67-12.52,229,229,0,0,0,44.18-90.39c.11-.42.21-.84.31-1.26Q989.78,573.8,1011.19,572ZM806.14,654.5c10.64-36.48,40.66-54,55.15-60.59.23.66.46,1.32.68,2s.43,1.22.62,1.84c.81,2.46,1.56,4.95,2.24,7.43.18.62.35,1.25.51,1.86s.33,1.24.49,1.86c.48,1.83.92,3.65,1.32,5.44.29,1.24.56,2.46.82,3.67s.47,2.22.69,3.3c0,.16.06.33.1.49.38,1.93.73,3.81,1,5.61.24,1.36.46,2.67.67,3.93.1.6.19,1.19.28,1.76s.17,1.13.25,1.68c.25,1.61.46,3.11.64,4.48a115.83,115.83,0,0,1,.91,19.57c0,.8-.07,1.59-.12,2.39h0c-5.6,8.52-6.1,16.3-5.29,21.83a32.54,32.54,0,0,0,1,4.44q-.71,2.68-1.55,5.29c-.1.33-.21.66-.31,1h0l-38.5,51.5,0,0h0l0,0C805.17,720.51,796.86,686.26,806.14,654.5Zm652.41,167a29.4,29.4,0,0,1-8.14,3.58,30.74,30.74,0,0,1-9.33.91c-9.85-.48-19.38-4.91-25.68-7.83-2.52-1.17-4.52-2.1-6.36-2.74-7.57-2.63-11.83.91-13.53,3-.26.31-.46.58-.61.8l0,.06c-1.31,2-3.73,7.14,1,13.91a57.93,57.93,0,0,0,7.06,7.86c.77.75,1.6,1.53,2.48,2.35.42.4.85.79,1.3,1.2q3.45,3.16,7.94,7c3.84,3.29,8.25,7,13.28,11.08l1.62,1.32a550.48,550.48,0,0,1-58.71,41.79l-3.7,2.26-3.72,2.23,0,0q-2.47,1.49-5,2.93t-5,2.88c-1.68.95-3.35,1.89-5,2.82s-3.37,1.86-5.06,2.77-3.35,1.8-5,2.68l-.17.09-.22.12-2.82,1.46q-.93.5-1.86,1l-.49.26-.29.15-.32.16-.61.31-.73.37-.73.38h0a3.18,3.18,0,0,1-.32.16c-1.12.57-2.25,1.14-3.38,1.69l-3.92,1.93-3,1.42-3.46,1.64-2.68,1.25-2.33,1.07-1.41.66h0l-.49.22c-1.16.53-2.32,1.06-3.49,1.57q-3.49,1.56-7,3.06L1295,944.8c-1,.41-1.91.8-2.87,1.19l-.51.21-.34.14c-1.12.47-2.24.92-3.36,1.37l-.66.27-.67.27h0l-2.2.88q-3.55,1.41-7.14,2.76c-1.2.46-2.39.91-3.59,1.35q-3.58,1.34-7.2,2.61c-1.2.43-2.4.86-3.61,1.27-2.41.84-4.83,1.67-7.26,2.46-.93.32-1.88.63-2.82.93l-.44.14-.14.05-.77.25c-1,.34-2.08.68-3.12,1l-3.66,1.14c-1.22.39-2.45.76-3.67,1.12-.92.29-1.84.56-2.75.83l-4.61,1.34c-1.23.36-2.46.71-3.69,1-2,.56-4,1.12-6,1.65h0q-2.71.73-5.43,1.42l-.24.06-.35.09-.35.09c-.92.24-1.86.48-2.79.7l-.47.11-.6.15-1.51.38c-.5.13-1,.25-1.51.36l-.88.21-.34.08-.35.09c-1.13.28-2.26.55-3.4.8l-13.31,3.07,2.11,3.58,4.83,8.18c.17.29.36.61.54,1a51.69,51.69,0,0,1,5.86,33c0,.22-.07.44-.12.66-.09.5-.18,1-.28,1.47s-.21,1-.32,1.44-.21.88-.33,1.31a1.05,1.05,0,0,1-.06.24c-.12.41-.23.82-.35,1.22s-.27.89-.42,1.33-.29.87-.45,1.29-.27.74-.41,1.1-.37,1-.58,1.44-.33.77-.5,1.14-.36.8-.56,1.19-.36.73-.54,1.09-.37.73-.57,1.08-.39.71-.59,1.05-.39.68-.59,1l-.61,1c-.2.32-.4.63-.61.94-.37.56-.74,1.1-1.11,1.61s-.56.76-.83,1.12-.69.9-1,1.32-.81,1-1.21,1.44c-.19.23-.39.45-.58.66l-.64.69c-.35.38-.7.74-1,1.08-.61.62-1.18,1.16-1.68,1.61q-.33.32-.63.57l-8.46,7.43,8.38,7.52a19.57,19.57,0,0,1-9.67,34l-17.48,3.19,11.8,13.29c.26.29.53.61.81.94l.42.49.57.72.65.84.67.9.68,1q1,1.48,2.07,3.24c.2.33.39.67.59,1,.74,1.31,1.46,2.72,2.13,4.23.17.35.32.71.48,1.08,0,.11.09.23.14.34.19.46.37.92.55,1.39s.38,1,.56,1.54c.12.34.24.69.35,1s.18.57.27.87l.06.19h0c.13.44.26.89.38,1.34s.18.68.26,1c.14.56.27,1.13.39,1.7v0c.09.4.17.81.25,1.22s.12.68.17,1,.11.67.15,1a1.85,1.85,0,0,1,0,.23s0,0,0,.08,0,.24,0,.36c.06.41.1.83.15,1.26a50.68,50.68,0,0,1,.29,5.42c0,.55,0,1.09,0,1.63s0,1.08-.08,1.61-.09,1.23-.15,1.84c0,0,0,.08,0,.12-.06.56-.12,1.11-.2,1.66,0,.1,0,.21,0,.31-.07.48-.14,1-.22,1.43s-.21,1.13-.32,1.68l-.21,1-.15.63c-.13.53-.26,1-.4,1.57-.08.3-.16.6-.25.9l-.18.61c-.1.34-.21.68-.32,1-.17.53-.35,1-.53,1.55-.09.25-.18.5-.28.75q-.22.63-.48,1.23l-.16.39a5.49,5.49,0,0,1-.21.51c-.19.45-.38.89-.58,1.31-.09.21-.19.43-.29.63-.58,1.23-1.16,2.34-1.71,3.31-5.3,4.64-19.89,15.49-40.54,15.39l-1.3,0c-.57,0-1.14,0-1.7-.07h-.09c-.24,0-.46,0-.7,0h-.17c-.52,0-1-.08-1.55-.13-.69-.06-1.37-.14-2-.23l-1.49-.22-.22,0c-.25,0-.49-.08-.73-.12l-1.48-.28h0c-.52-.11-1.05-.22-1.56-.35l-.31-.07-.83-.2-.19-.05q-.57-.13-1.14-.3l-1-.3-.71-.22-1.26-.4-1.09-.38c-.58-.2-1.16-.42-1.72-.65l-.74-.29c-.39-.15-.77-.32-1.14-.48h0l-.8-.35c-.43-.19-.85-.38-1.26-.58-.83-.39-1.64-.8-2.42-1.22l-1.16-.63h0l0,0-.73-.41q-1.17-.66-2.25-1.35c-.28-.17-.55-.35-.82-.53a.57.57,0,0,1-.13-.08c-.42-.28-.83-.55-1.23-.83s-.79-.55-1.17-.82-1-.75-1.51-1.12c-.31-.23-.61-.47-.9-.7-.6-.48-1.17-.94-1.7-1.4l-.88-.76-.4-.36-.39-.35,0,0c-.36-.32-.69-.63-1-.94s-.74-.7-1.06-1-.73-.75-1-1.08-.5-.89-.75-1.38l-.29-.55c-.29-.57-.59-1.17-.88-1.8s-.59-1.29-.88-2c-.1-.23-.2-.46-.29-.7s-.25-.62-.37-.93l-.36-1a.25.25,0,0,1,0-.07c-.13-.34-.25-.69-.37-1s-.24-.73-.36-1.11-.23-.75-.35-1.14l-.3-1.09c-.1-.36-.19-.73-.28-1.1s-.19-.79-.28-1.19v0c-.09-.41-.18-.82-.26-1.24s-.17-.87-.24-1.31-.13-.83-.2-1.25l-.21-1.62c0-.35-.07-.7-.1-1l0-.35q-.06-.64-.09-1.29c0-.32,0-.64,0-1s0-.48,0-.72c0-.42,0-.84,0-1.27,0-.88,0-1.78.07-2.69l0-.42c0-.5.06-1,.11-1.51a.09.09,0,0,1,0,0c0-.17,0-.34,0-.51q0-.53.12-1.05c.07-.54.14-1.09.23-1.64a51.88,51.88,0,0,1,11.14-24.68l10.12-12.38-15.56-3.68c-10.4-2.46-18.12-10.72-18.35-19.64-.21-8.11,6.09-14.1,7.35-15.22l8.81-7.8-9.11-7.44c-.13-.1-.79-.65-1.77-1.61l-.3-.3a46.75,46.75,0,0,1-4.9-5.8l-.64-.92c-.46-.69-.93-1.41-1.39-2.17l-.33-.56c-.37-.63-.73-1.29-1.08-2-.14-.27-.28-.55-.41-.83s-.39-.82-.58-1.24-.27-.6-.4-.91l-.12-.29c-.13-.3-.25-.61-.36-.92a5.37,5.37,0,0,1-.21-.56c-.13-.34-.25-.69-.37-1l-.45-1.4c-.11-.42-.23-.84-.34-1.27l-.06-.23c-.1-.38-.19-.77-.27-1.16,0-.12-.06-.25-.08-.38-.17-.82-.32-1.65-.43-2.51,0-.28-.07-.56-.11-.85l-.06-.57a37.4,37.4,0,0,1-.07-6.19,40.22,40.22,0,0,1,12.16-25.58,37.36,37.36,0,0,1,4.39-3.78l6.09-4.39,11.32-8.16,2.43-1.75-24.17-3.7q-16.95-2.6-33.58-6.46c-1.42-.33-2.83-.66-4.24-1l-.36-.09-1.31-.32-.55-.14-.76-.19-.29-.07-1.66-.42-2-.5q-2.67-.69-5.32-1.41l-.39-.11q-2.67-.74-5.33-1.5t-5.49-1.62c-1.64-.48-3.27-1-4.89-1.5l-.57-.18h0l-4.87-1.57-.54-.18q-2.49-.83-5-1.68l-3.11-1.08h0l-2.71-1c-1.66-.59-3.31-1.2-5-1.82l-.87-.32c-1.62-.61-3.25-1.23-4.87-1.86-1.27-.49-2.53-1-3.8-1.5l-1.8-.72-3.14-1.29-3.1-1.31h0l-4.35-1.86c-1.51-.65-3-1.32-4.52-2l-.75-.34-.15-.07-.43-.19c-1.43-.64-2.84-1.29-4.26-2l-.1,0-3.54-1.67c-1.13-.53-2.26-1.08-3.39-1.63l-.13-.06-.18-.09-4.5-2.22c-1.31-.66-2.62-1.32-3.92-2l-2.12-1.1-.29-.15c-1.43-.74-2.85-1.5-4.27-2.26l-2.56-1.38c-.86-.46-1.71-.93-2.56-1.4l-.12-.07q-2.61-1.44-5.2-2.92h0l-2.4-1.38L923,912.08c-1.62-1-3.22-1.9-4.82-2.87l-.37-.22c-1.53-.94-3.07-1.88-4.59-2.83l-.46-.28c-.92-.57-1.84-1.15-2.75-1.74q-2.22-1.39-4.43-2.85c-.92-.59-1.84-1.19-2.75-1.8s-2-1.3-2.95-2c-.6-.4-1.2-.8-1.79-1.21-.81-.54-1.61-1.09-2.41-1.65q-3.1-2.14-6.18-4.35c-1.33-.95-2.65-1.9-4-2.87s-2.31-1.69-3.45-2.55l-1.87-1.41c-1.13-.85-2.25-1.71-3.37-2.57q-2.19-1.7-4.37-3.42-2-1.59-4-3.19l-.34-.28c-.75-.6-1.49-1.21-2.23-1.82-1-.8-2-1.61-2.92-2.42-1.29-1.08-2.57-2.16-3.85-3.26-1.43-1.21-2.84-2.44-4.25-3.68q3.58-3.52,6.63-6.64,1.89-1.94,3.58-3.72l1.57-1.67,1.61-1.76c.57-.62,1.11-1.23,1.64-1.83q1.7-1.92,3.09-3.63c.26-.3.5-.61.74-.9l.92-1.17c2.65-3.41,8.38-10.8,5.92-17.94a11.48,11.48,0,0,0-1.7-3.21,10,10,0,0,0-.69-.83c-1.88-2.08-6-5.08-13.25-3.17a66.92,66.92,0,0,0-7.58,2.78c-7.74,3.17-18.33,7.51-28.66,5.11-7.8-1.82-15-7.44-21.57-16.72l4-5.46,28.74-39.51,1-1.4c-1,.53-1.94,1-2.91,1.48,1-.46,1.94-1,2.91-1.48h0l2.5-3.35,40.76-54.55,8.69-11.62-3.68-5.82a.41.41,0,0,1,0-.09,15.53,15.53,0,0,1-2.16-5.63c-.51-3.44,1.13-7.23,4.88-11.27.29-.32.61-.65.94-1l3.55-3.54L886.1,592.67l-.37-2.59,60.92-9.37v0l-.6,2.08h0c0,.15-.09.31-.14.47-.36,1.23-.73,2.45-1.11,3.67l-.66,2.06q-1,3.09-2.1,6.13c-.24.67-.48,1.35-.73,2-.4,1.09-.81,2.16-1.23,3.24-.83,2.13-1.7,4.26-2.59,6.36a208.6,208.6,0,0,1-31.69,51.71l-3,3.63.89,4.65A26.24,26.24,0,0,1,899.2,687l-3.5,4.92,2.71,5.39a110.15,110.15,0,0,0,37.37,42.39c33.63,22.28,69.39,18.64,83.2,16l4.09-.77,2.34-3.45a117.39,117.39,0,0,1,40.91-37.41c25.1-13.59,48.4-13.65,69-13.69,22.13,0,45-.1,69.18,13.59a109.93,109.93,0,0,1,39.28,38.63l3,4.86,5.68-.06a182.64,182.64,0,0,0,73.72-16.2l3.27-1.48c13.17-5.9,24.54-11,34.57-21.67a82.27,82.27,0,0,0,12.56-17.5l3.4-6.35-5-5.24a28.92,28.92,0,0,1-7.78-22.58l.29-3-1.47-2.69c-5.07-9.26-9.85-18.83-14.22-28.44A435.81,435.81,0,0,1,1331.65,579l1.67.13,24.23,1.91,33.41,2.63-.55,4-.67,4.83L1387,612v.1l-5.94,42.7v.26l-1.17,8.48,1.6,1.51,2.15,2c5,4.69,7.19,9.07,6.6,13a15.88,15.88,0,0,1-2.27,5.82l-2.21,3.44-1.57,2.43,3.79,5,46.53,61.61,1.87,2.48.06.09h0L1464,802.08l5.91,8.8A44.32,44.32,0,0,1,1458.55,821.51ZM942,595.15c-.24.67-.48,1.35-.73,2,.3-.8.59-1.6.88-2.4.19-.55.39-1.1.58-1.66.47-1.35.93-2.72,1.37-4.09Q943.13,592.11,942,595.15Zm2.76-8.19c.22-.69.43-1.38.64-2.07.16-.53.32-1.06.47-1.6C945.54,584.52,945.17,585.74,944.79,587Zm388.39,340-.49.26.5-.25Zm0,0-.49.26.5-.25Z"/><path class="cls-13" d="M1395.51,818.39c-.26.31-.46.58-.61.8l0,.06-.75-1.22Z"/><path class="cls-13" d="M1458.55,821.51a29.4,29.4,0,0,1-8.14,3.58,30.74,30.74,0,0,1-9.33.91,63.29,63.29,0,0,0,11.48-2.34A58.49,58.49,0,0,0,1458.55,821.51Z"/><path class="cls-13" d="M1467.83,839.3a49,49,0,0,1-26.14,6.73,82.23,82.23,0,0,0,16.65-3.23A85.8,85.8,0,0,0,1467.83,839.3Z"/><path class="cls-23" d="M1199.8,1237.78l334.55,240.83c10.88,14.79,11.82,34.54,2.49,49.61-10.43,16.85-31.73,24.66-51.47,18.42l-334.55-240.82C1167.36,1283.29,1183.26,1260.31,1199.8,1237.78Z"/><path class="cls-13" d="M1499.32,1558.81a56.41,56.41,0,0,1-17-2.63l-1.53-.48-344-247.66,6-8.14c8.22-11.2,16.45-22.74,24.4-33.89s16.26-22.82,24.58-34.15l5.86-8,343.87,247.54.94,1.27c13.18,17.92,14.36,42.36,2.94,60.81A53.93,53.93,0,0,1,1499.32,1558.81Zm-9.49-21.28c14.73,4,30.73-2,38.51-14.57,6.92-11.17,6.39-25.94-1.19-37.22L1202,1251.7c-6.27,8.65-12.5,17.39-18.58,25.91s-12.32,17.29-18.61,26Z"/><path class="cls-23" d="M1089.71,1158.53l41.16,29.63-49,68-41.16-29.63Q1065.25,1192.58,1089.71,1158.53Z"/><path class="cls-13" d="M1084.16,1270.15l-57.4-41.32,5.86-8.11q12.24-17,24.45-34t24.53-34.07l5.84-8.1,57.39,41.31Zm-29.46-45.85,24.92,17.94,37.29-51.81-24.93-18-18.67,26Q1064,1211.36,1054.7,1224.3Z"/><path class="cls-7" d="M1136,1159.48l-68.94,95.77a159.46,159.46,0,0,1-134.3,56.35c5.56,21.44,23,76.59,75.36,121.2,70.39,59.94,152.23,56.8,170.34,55.67a184.31,184.31,0,0,1-11.67-167.15l63.7-88.27q.13-50.13.26-100.28Z"/><path class="cls-8" d="M946.16,1336.08c17.78.21,74.48-1.36,128.68-41.88,56.15-42,73.2-98.55,77.61-115.4l74-22-.51-20.42-90,23.06q-19.87,35.7-39.76,71.41a245.05,245.05,0,0,1-157.78,85.78"/><path class="cls-24" d="M944.62,1315.14c2.39,13.68,15.65,81.25,79.66,127.66,63.19,45.81,130.5,38.16,144.51,36.26l-6.63-16.34a235.44,235.44,0,0,1-205.54-147.58Z"/><path class="cls-13" d="M1164.56,1498.89c-36.69,0-103.67-8.05-162.89-58.48-51.12-43.53-71.16-97.81-78.55-126.3l-3.5-13.5,13.91,1a151.1,151.1,0,0,0,76.89-14.6,149,149,0,0,0,48.79-37.94l70.75-98.28,110.87-31.26-.31,116.75-64.91,89.94a173.84,173.84,0,0,0-13.48,68.56,176.63,176.63,0,0,0,25,88.55l8.37,14.08-16.34,1C1175.07,1498.7,1170.16,1498.89,1164.56,1498.89ZM946.27,1322c9,27.68,28.3,69,68.37,103.16,53.09,45.21,113.08,53.34,147.34,53.7a194,194,0,0,1-4.36-161.46l.44-1,62.48-86.57.22-83.82-78.65,22.17L1075,1261.4l-.25.3A169.15,169.15,0,0,1,946.27,1322Z"/><path class="cls-25" d="M1563,1292.8c-.26,16.63-2.31,83.52-39.74,158.48a383.71,383.71,0,0,1-52.94,79.73,64.13,64.13,0,0,1-93.44-68.17,389.75,389.75,0,0,0,41.38-274.62l24.54-20.83,71.29-60.52C1531.63,1137.22,1564.42,1203.83,1563,1292.8Z"/><path class="cls-26" d="M1459.09,1339.4c-11.49,83.42-54.12,168-72.77,163.91-4.18-.92-7.06-6.27-9.25-16.14a63.78,63.78,0,0,1-.18-24.33,389.75,389.75,0,0,0,41.38-274.62l24.54-20.83C1459.79,1191.8,1468.23,1273,1459.09,1339.4Z"/><path class="cls-13" d="M1521.55,1091.68l-7.88,6.3-8,6.36c22.74,40.74,49.25,106.29,47.31,188.22-2.68,112.82-56.33,192.31-89,230.46a54.1,54.1,0,0,1-77.6-56.61,333.55,333.55,0,0,0,28.06-289.09l-8.26,6.61-8.27,6.61a313.48,313.48,0,0,1-29.58,267.07l-1,1.57-.34,1.83a74.17,74.17,0,0,0,108,78.8l1.61-.87,1.2-1.38a398.49,398.49,0,0,0,54.33-81.82c25.73-51.53,39.45-106.27,40.79-162.71C1575.12,1204.67,1545.86,1134.4,1521.55,1091.68Z"/><path class="cls-25" d="M1360.3,701.06a65.46,65.46,0,0,1-6.28,8.32c-7.42,8.36-16.34,12.59-28.67,18.45l-3.38,1.6a157.72,157.72,0,0,1-61.25,15.39c-11.59-18.34-26.74-33.4-44.11-43.81-29.29-17.55-56.44-17.49-80.44-17.44-22.17.06-49.75.12-79.81,17.34a142.36,142.36,0,0,0-46.23,43.29c-13.57,2-40.44,2.91-65.66-14.76A95,95,0,0,1,916,697.22a52.26,52.26,0,0,0,5.19-27.17,248.09,248.09,0,0,0,18.6-28.4A254.09,254.09,0,0,0,963.5,583.4q1.44-5.29,2.66-10.67c15.1-2.33,30.51-4.47,43.8-5.93l.19,0q16-1.41,32-2.52h.07c32.48-2,65.24-3.07,97.57-3.32h.29c33.4.27,67.25,1.45,100.78,3.54q36.62,2.53,73.13,7c1.07,4,2.19,8,3.37,12a506,506,0,0,0,20.59,57.21c4.25,9.89,8.86,19.73,13.74,29.31a55.72,55.72,0,0,0,2.81,19A54,54,0,0,0,1360.3,701.06Z"/><path class="cls-26" d="M1317.35,583.4c-54.24-4.6-113.14-7.47-176.13-7.49-63.59,0-123,2.85-177.72,7.49.47-1.73.94-3.51,1.39-5.32s.87-3.56,1.27-5.35c15.1-2.33,30.51-4.47,43.8-5.93l.19,0q16-1.41,32-2.52h.07c32.48-2,65.24-3.07,97.57-3.32h.29c33.4.27,67.25,1.45,100.78,3.54q36.62,2.53,73.13,7C1315.05,575.43,1316.17,579.43,1317.35,583.4Z"/><path class="cls-25" d="M1450.18,745.34l-.7-.28h0l-2.4-3.18-39-51.62A34.22,34.22,0,0,0,1410,683c1-6.6,0-16.29-9-26.64l5.63-40.68v-.07c0-.06,0-.12,0-.18.08-.32.15-.64.23-1s.15-.63.23-.94c.15-.62.31-1.24.47-1.86l.48-1.83.66-2.41s0,0,0-.05l.69-2.4c.24-.8.47-1.58.71-2.35s.49-1.54.73-2.29c.14-.44.28-.88.43-1.31l.54-1.58q.88-2.52,1.8-4.86c12.86,5.3,46.69,22.66,58.13,61.87C1481.17,686.3,1472.85,720.59,1450.18,745.34Z"/><path class="cls-25" d="M872.56,658.81c0,.8-.07,1.59-.12,2.39h0c-5.6,8.52-6.1,16.3-5.29,21.83a32.54,32.54,0,0,0,1,4.44q-.71,2.68-1.55,5.29c-.1.33-.21.66-.32,1l-37.94,50.75-.56.75c-22.61-24.75-30.92-59-21.64-90.76,10.64-36.48,40.66-54,55.15-60.59.23.66.46,1.32.68,2,.13.37.25.74.37,1.11s.17.48.25.73c.8,2.46,1.55,4.95,2.24,7.43.18.62.35,1.25.51,1.86s.33,1.24.49,1.86c.47,1.83.91,3.65,1.32,5.44.29,1.24.56,2.46.82,3.67s.47,2.22.69,3.3c0,.16.06.33.1.49.38,1.93.73,3.81,1,5.61.24,1.36.46,2.67.67,3.93.1.6.19,1.19.28,1.76s.17,1.13.25,1.68c.25,1.61.46,3.11.64,4.48A115.83,115.83,0,0,1,872.56,658.81Z"/><path class="cls-26" d="M816.75,642.52c-14.93,32-10.18,70.83,11.59,102l-.56.75c-22.61-24.75-30.92-59-21.64-90.76,10.64-36.48,40.66-54,55.15-60.59.23.66.46,1.32.68,2,.13.37.25.74.37,1.11C852.54,601.84,829.54,615.14,816.75,642.52Z"/><path class="cls-26" d="M1450.18,745.34l-.7-.28h0l-2.4-3.18c20.17-30.68,24.22-68.21,9.72-99.24-12.47-26.7-34.66-40-44.83-45.14q.88-2.52,1.8-4.86c12.86,5.3,46.69,22.66,58.13,61.87C1481.17,686.3,1472.85,720.59,1450.18,745.34Z"/><path class="cls-27" d="M1082,288.73l-.17,11.9-2,142.54-.1,7.45-.22,15.69q-45.32,2.12-90.49,7.08l-57.92-.4-33-.22c.23-1.53.48-3.07.74-4.61a334.69,334.69,0,0,1,9.72-41.41,291.69,291.69,0,0,1,28.11-62.95q2.93-4.92,6-9.71a291.86,291.86,0,0,1,27.11-35.38q2.65-3,5.4-5.86c.5-.54,1-1.08,1.54-1.61l8,.81,13.37,1.35.85-.25Q1040.55,300.94,1082,288.73Z"/><path class="cls-27" d="M1184.94,465.31q-21.37-.58-42.73-.55t-42.65.77l.22-15.85.1-7.41,2-147,.17-12.41L1138.66,272l42.13,14.83.23,9.88,3.39,145.72.17,7.5Z"/><path class="cls-27" d="M1379.89,476.05l-24-.16-33.33-.23c-39-4.81-78.29-8-117.57-9.66l-.35-14.94-.17-7.59L1201.17,303l-.21-9,46.47,16.36,30,1.13,24.76.94c.56.57,1.1,1.15,1.63,1.73a291.44,291.44,0,0,1,31.31,40c.84,1.29,1.67,2.58,2.48,3.89a291.35,291.35,0,0,1,27.27,55.71l3.29,10.49a332.83,332.83,0,0,1,10.45,43.69Q1379.32,472,1379.89,476.05Z"/><path class="cls-27" d="M1330.77,313.48l-.82,0,0-.06Z"/><path class="cls-8" d="M1079.27,486.35l-.85,61.55c-17.4.66-34.81,1.55-52.11,2.67C989.37,553,905.42,566.35,894,570.34c-8.22,2.86-14,3.29-17.65,1.32-6.07-3.28-5.92-22.06-5.73-48,.06-7.53.66-9.83,1.14-10.44a20.33,20.33,0,0,1,4.66-2.54A1421.53,1421.53,0,0,1,1079.27,486.35Z"/><path class="cls-8" d="M1186.85,547.47c-16-.51-32.07-.84-48-1h-.14q-20.07.15-40.29.72l.86-61.68q21.49-.71,43-.79t43.14.56Z"/><path class="cls-8" d="M1079.77,450.62l-.22,15.69q-45.32,2.12-90.49,7.08-46.56,5.1-92.68,13.23c.07-.71.15-1.43.24-2.15A341.27,341.27,0,0,1,931.14,473C973.48,461.17,1025.37,453.72,1079.77,450.62Z"/><path class="cls-8" d="M1184.94,465.31q-21.37-.58-42.73-.55t-42.65.77l.22-15.85c28.15-1.05,56.73-.95,84.8.29Z"/><path class="cls-8" d="M1378.52,483.71q-27.88-4.59-56-8c-39-4.81-78.29-8-117.57-9.66l-.35-14.94c56.05,3.61,109.06,11.89,151.25,24.83Q1367.8,479.54,1378.52,483.71Z"/><path class="cls-8" d="M1401.23,571.66c-3.65,2-9.43,1.54-17.64-1.32-5.83-2-11.51-4.65-15.65-6.57-2.8-1.29-4.65-2.14-6.15-2.65l-1-.33-1-.13c-36-4.36-72.5-7.75-108.51-10.09q-22.12-1.44-44.4-2.37L1205.42,486a1421,1421,0,0,1,186.24,20.22c3.07,1.65,5.76,2.8,8,3.76a26,26,0,0,1,6.15,3.18c.4.5,1.09,2.51,1.14,10.44C1407.15,549.61,1407.29,568.39,1401.23,571.66Z"/><path class="cls-7" d="M1079.87,443.17l-.1,7.45-.22,15.69q-45.32,2.12-90.49,7.08-46.56,5.1-92.68,13.23c.07-.71.15-1.43.24-2.15.43-3.85,1-7.76,1.55-11.7.23-1.53.48-3.07.74-4.61A1099.71,1099.71,0,0,1,1079.87,443.17Z"/><path class="cls-7" d="M1184.94,465.31q-21.37-.58-42.73-.55t-42.65.77l.22-15.85.1-7.41q22.65-.82,46.44-.7,19.44.12,38.09.9l.17,7.5Z"/><path class="cls-7" d="M1380.93,484.1l-2.39-.39h0q-27.88-4.59-56-8c-39-4.81-78.29-8-117.57-9.66l-.35-14.94-.17-7.59a1101,1101,0,0,1,174.18,24.4q.7,4.11,1.27,8.18C1380.28,478.75,1380.63,481.44,1380.93,484.1Z"/><path class="cls-28" d="M1082.43,258.46l-.17,12.36-.25,17.91-.17,11.9c-49,16.23-80.93,49.4-91.07,60.58-16.38,1.51-34.46,2.52-54,2.59q2.93-4.92,6-9.71a291.86,291.86,0,0,1,27.11-35.38q2.65-3,5.4-5.86l8.58.11,1-.91A238.5,238.5,0,0,1,1082.43,258.46Z"/><path class="cls-28" d="M1181,296.75a176.75,176.75,0,0,0-79.1-1.53l.17-12.41.22-16.4.18-12.39a226.42,226.42,0,0,1,77.53-.09l.31,13.25.46,19.69Z"/><path class="cls-28" d="M1337.61,358c-20-.38-39.08-1.26-57.3-2.49-9-9.31-36.92-36.7-79.14-52.47l-.21-9-.51-21.94-.32-13.67a241.85,241.85,0,0,1,97,52.3l3.27-.1c.6.61,1.19,1.22,1.76,1.84s1.1,1.15,1.63,1.73a291.44,291.44,0,0,1,31.31,40C1336,355.38,1336.8,356.67,1337.61,358Z"/><path class="cls-28" d="M1330.77,313.48l-.82,0,0-.06Z"/><path class="cls-28" d="M1540.79,344.4h-.06l0-.17Z"/><path class="cls-7" d="M1082.57,248.18l-.14,10.28-.17,12.36a228.73,228.73,0,0,0-83.17,42.33c-3.06,2.47-5.48,4.56-7.24,6.12l-22-.56q2.65-3,5.4-5.86c.5-.54,1-1.08,1.54-1.61q7.93-8.3,16.56-16c4-3.27,8.12-6.44,12.31-9.43C1016.71,278,1043.51,258.89,1082.57,248.18Z"/><path class="cls-7" d="M1180.33,267.18a219.37,219.37,0,0,0-78-.77l.18-12.39.11-8.3a133.41,133.41,0,0,1,77.26,1.32l.16,6.89Z"/><path class="cls-7" d="M1303.82,314.13l-22.43.54c-1.06-.88-2.38-2-4-3.21a229.72,229.72,0,0,0-77-39.43l-.32-13.67-.2-8.77c36.39,10.9,61.41,28.73,71.94,36.25,5.77,4.12,11.42,8.56,16.78,13.19q6.06,5.6,11.78,11.53c.6.61,1.19,1.22,1.76,1.84S1303.29,313.55,1303.82,314.13Z"/><path class="cls-7" d="M1330.77,313.48l-.82,0,0-.06Z"/><path class="cls-13" d="M1540.76,344.24l0,.17h.06ZM1330,313.5l.82,0-.86,0Z"/><path class="cls-29" d="M849.13,283.27l-87.31,91.91a170,170,0,0,0,54.12,35.75c20.22,8.3,55.63,22.83,80.17,7.66,17.72-11,15.87-28.81,32.68-63.32a241.18,241.18,0,0,1,46.47-64.85Z"/><path class="cls-29" d="M1426.43,282.12,1513.75,374a170.31,170.31,0,0,1-54.13,35.75c-20.22,8.29-55.63,22.83-80.17,7.66-17.72-11-15.87-28.81-32.68-63.32a240.8,240.8,0,0,0-46.47-64.85Z"/><path class="cls-2" d="M736.79,343l42.9,51.07,23-11.75-8.17-26,26-3.06q-2-11.75-4.09-23.49l28.6-4.6q-4.34-8.94-8.68-17.87l23-3.07q-8.18-9.69-16.34-19.4l-36.26-3.57-40.34-71Q751.61,276.63,736.79,343Z"/><path class="cls-2" d="M1540.79,345.3l-42.89,51.06-23-11.74,8.17-26-26-3.07,4.08-23.49-28.59-4.59q4.34-8.94,8.68-17.87l-23-3.07,16.34-19.4,36.26-3.58q20.16-35.49,40.34-71Z"/><path class="cls-13" d="M1550.65,319.16c-5.48-32.88-12.47-68.86-20.77-107l-.82-3.78-3.16-2.24c-8.69-6.18-16.57-7.85-23.4-5-10.37,4.35-11.51,15.4-12.6,26.08-.7,6.79-1.49,14.47-4.35,21.62-4.23,10.55-13.11,19.79-26.42,27.5l-152.76,4.76-7.37.23-1.41-1.28-.15.17c-4.52-3.73-9.19-7.33-14-10.73-17-12.11-68.62-49-144.7-49s-127.73,36.87-144.7,49c-4.69,3.35-9.29,6.89-13.75,10.57h0l-.06.06-1.49,1.22-1.17,0-159.16-4.95c-13.31-7.71-22.19-17-26.42-27.5-2.86-7.15-3.65-14.83-4.35-21.62-1.1-10.68-2.23-21.73-12.59-26.08-6.84-2.88-14.72-1.21-23.41,5l-3.16,2.24-.82,3.78c-8.3,38.08-15.29,74.07-20.77,107-1,5.85-2.6,15.63.11,27.47,7.73,33.71,42.51,51.12,61.19,60.47,29.53,14.78,62.55,22.82,98.33,24-1.46,5.35-2.73,10.53-3.83,15.5a327.88,327.88,0,0,0-6.66,42.24c-2.12,1.12-4.08,1.95-6,2.76a43,43,0,0,0-10.9,6c-8.41,6.81-8.5,17.8-8.56,25.84,0,4.72-.07,9.16-.06,13.35,0,15.61.56,27.57,3.48,36.48,2.37,7.24,6.31,12.46,12.81,16a32.84,32.84,0,0,0,19.25,3.41,63.45,63.45,0,0,0,14.48-3.45c3.54-1.24,22.68-4.78,46.06-8.49,6.89-1.09,14.15-2.2,21.5-3.26,14.84-2.16,30-4.15,43.05-5.51l.19,0c5.92-.61,11.4-1.1,16.23-1.41q7.59-.49,15.21-.93h.07c31.92-1.82,64.12-2.86,95.9-3.09h.29c32.83.25,66.1,1.35,99.05,3.29q5.92.35,11.84.73c35.22,2.28,70.92,5.59,106.14,9.83l1.44.65,2,.92c4.26,2,10.7,4.94,17.45,7.29a66.51,66.51,0,0,0,12.73,3.24,42.74,42.74,0,0,0,5.92.43,31.24,31.24,0,0,0,15.07-3.63A25.76,25.76,0,0,0,1423,574.8c3.38-9,4-21.48,4-38,0-4.18,0-8.63-.06-13.35-.06-8-.13-19-8.56-25.83a42.76,42.76,0,0,0-10.9-6.05c-1.91-.81-3.87-1.64-6-2.76a337,337,0,0,0-10.5-57.74l1.41-.05c35.24-1.32,67.78-9.34,96.92-23.93,18.68-9.35,53.46-26.76,61.19-60.47C1553.25,334.79,1551.63,325,1550.65,319.16Zm-19.61,23a37.8,37.8,0,0,1-1.1,3.85c-3.41,10.08-10.67,18.27-19.08,25-9.4,7.49-20.22,13.09-28.68,17.34l-1.78.89c-28.31,14.16-60.31,21.55-95.17,22a310.68,310.68,0,0,0-24.15-53q-4.36-7.65-9.19-15A310.32,310.32,0,0,0,1330,313.5l0-.06c-1.05-1.25-2.1-2.48-3.17-3.71q-3.9-4.55-8-8.94l107.11-3.33,14.72-.46,24-.75,2.1-1.15c18.61-10.23,31.2-23.26,37.4-38.75a2,2,0,0,0,.08-.22c3.84-9.67,4.82-19.16,5.6-26.79.3-2.9.68-6.57,1.19-8.88l.25.12q4.45,20.58,8.37,40.27c4.19,21,7.89,41.11,11.08,60.17l.24,1.42C1531.79,327.67,1532.87,334.17,1531,342.17Zm-259.17-56.33c5.77,4.12,11.42,8.56,16.78,13.19q6.06,5.6,11.78,11.53c.6.61,1.19,1.22,1.76,1.84s1.1,1.15,1.63,1.73a291.44,291.44,0,0,1,31.31,40c.84,1.29,1.67,2.58,2.48,3.89a291.35,291.35,0,0,1,27.27,55.71l3.29,10.49a332.83,332.83,0,0,1,10.45,43.69q.7,4.11,1.27,8.18c.39,2.7.74,5.39,1,8.05l-2.39-.39h0q-27.88-4.59-56-8c-39-4.81-78.29-8-117.57-9.66l-.35-14.94-.17-7.59L1201.17,303l-.21-9-.51-21.94-.32-13.67-.2-8.77C1236.32,260.49,1261.34,278.32,1271.87,285.84ZM1099.78,449.68l.1-7.41,2-147,.17-12.41.22-16.4.18-12.39.11-8.3a133.41,133.41,0,0,1,77.26,1.32l.16,6.89.31,13.25.46,19.69.23,9.88,3.39,145.72.17,7.5.36,15.34q-21.37-.58-42.73-.55t-42.65.77ZM976.84,311.24q7.93-8.3,16.56-16c4-3.27,8.12-6.44,12.31-9.43,11-7.85,37.8-26.95,76.86-37.66l-.14,10.28-.17,12.36-.25,17.91-.17,11.9-2,142.54-.1,7.45-.22,15.69q-45.32,2.12-90.49,7.08-46.56,5.1-92.68,13.23c.07-.71.15-1.43.24-2.15.43-3.85,1-7.76,1.55-11.7.23-1.53.48-3.07.74-4.61a334.69,334.69,0,0,1,9.72-41.41,291.69,291.69,0,0,1,28.11-62.95q2.93-4.92,6-9.71a291.86,291.86,0,0,1,27.11-35.38q2.65-3,5.4-5.86C975.8,312.31,976.31,311.77,976.84,311.24ZM793.16,387.19c-8.25-4.18-18.25-9.58-27-16.62-9.23-7.45-17-16.76-19.66-28.4a40.29,40.29,0,0,1-1-8.49,63.48,63.48,0,0,1,1.11-11.24q2.75-16.41,6-33.85,2.29-12.3,4.81-25,3.3-16.7,7-34.1c.62-2.94,1.26-5.9,1.9-8.87l.25-.12c.51,2.31.89,6,1.19,8.88.24,2.33.5,4.83.85,7.46a80,80,0,0,0,4.83,19.55c4.45,11.13,12.2,21,23.12,29.45h0a107.73,107.73,0,0,0,12.91,8.53l.55.31h0l15.52,2h0l9.69.3.78,0h0l17.59.55,105.46,3.28q-3.63,3.9-7.13,7.93c-1.09,1.24-2.16,2.5-3.22,3.76-1.56,1.84-3.08,3.7-4.59,5.57q-9.71,12.09-18.2,25.11-6.46,9.93-12.14,20.3a310.72,310.72,0,0,0-21.2,47.73c-35-.39-67.1-7.77-95.5-22ZM1042.31,549.6l-.67,0h-.25l-.61,0-6.81.4q-3.84.23-7.66.48c-4.74.31-10.25.8-16.28,1.43h-.14l-1.8.19q-2.94.31-6,.67c-3.6.41-7.33.86-11.14,1.33l-3.78.48c-5.22.68-10.56,1.4-15.93,2.15l-5.2.74c-9.95,1.43-19.85,2.94-29,4.43l-1.87.31-3.06.5-2,.33H930l-1.89.32a2.2,2.2,0,0,1-.37.06l-1.11.19c-3,.52-6,1-8.7,1.53l-2.56.46-5.58,1-1.39.27-2.17.43-1.15.23-3.63.76-.64.14c-1.13.25-2.16.49-3.07.71l-.43.11-.42.11c-.27.06-.53.13-.77.2h0l-.41.11c-.46.13-.87.25-1.22.37l-.2.06-.24.08c-8.22,2.86-14,3.29-17.65,1.32a3.21,3.21,0,0,1-.46-.29,4.49,4.49,0,0,1-.44-.35,5.65,5.65,0,0,1-.73-.8,2.48,2.48,0,0,1-.19-.26,3.88,3.88,0,0,1-.23-.33c-.1-.16-.21-.33-.3-.51s-.18-.33-.26-.5-.15-.31-.22-.48-.14-.32-.21-.49-.19-.48-.27-.73a22.47,22.47,0,0,1-.65-2.25c-.06-.21-.11-.43-.16-.65l-.06-.31c0-.21-.09-.43-.13-.66s-.11-.56-.16-.86c0-.07,0-.15,0-.23,0-.23-.08-.46-.11-.7s-.11-.74-.16-1.12-.1-.72-.14-1.09c-.1-.82-.18-1.68-.26-2.57l-.06-.72c-.05-.54-.09-1.1-.12-1.67s-.07-1.11-.1-1.69,0-.95-.07-1.44c0-.65-.06-1.32-.08-2s0-1.49-.07-2.26,0-1.78,0-2.7,0-1.7,0-2.58c0-1.49,0-3,0-4.61,0-4.14,0-8.55.06-13.2.06-7.53.66-9.83,1.14-10.44a20.33,20.33,0,0,1,4.66-2.54,1421.53,1421.53,0,0,1,202.85-24.28l-.7,50.46-.15,10.92v.17l-10.92.45-7.48.34-9.08.44Zm96.39-3.09q-20.06.15-40.27.72v-.17l.15-10.25.71-51.26q21.49-.71,43-.79t43.14.56l1.2,51.49.25,10.45v.21q-24-.76-47.77-1Zm253-40.28c3.07,1.65,5.76,2.8,8,3.76a26,26,0,0,1,6.15,3.18c.4.5,1.09,2.51,1.14,10.44,0,4.65.07,9.06.06,13.2,0,1.55,0,3.07,0,4.54l0,2c0,1.39,0,2.73-.08,4,0,.44,0,.87,0,1.3-.15,4.36-.41,8.22-.84,11.49,0,.36-.1.71-.16,1.06s-.1.68-.16,1c-.11.65-.24,1.28-.37,1.88,0,.2-.09.4-.14.59-.1.45-.22.88-.34,1.29-.06.2-.12.4-.19.6s-.07.22-.11.33l-.24.65c-.11.29-.22.56-.34.81s-.16.34-.25.5a8.9,8.9,0,0,1-.83,1.33,3.88,3.88,0,0,1-.26.31l-.12.14a5.48,5.48,0,0,1-.56.52l-.25.19a4.43,4.43,0,0,1-.46.29c-3.65,2-9.43,1.54-17.64-1.32-5.83-2-11.51-4.65-15.65-6.57l-1.71-.78c-.26-.13-.51-.24-.76-.35-1.22-.55-2.22-1-3.1-1.31h0l-.57-.21-1-.33-1-.13c-36-4.36-72.5-7.75-108.51-10.09l-11.07-.69-.27,0q-4.59-.27-9.19-.51l-5.4-.28c-1.16-.07-2.33-.12-3.5-.18l-6.16-.29-8.81-.4V548l-.27-11.21-1.18-50.8A1421,1421,0,0,1,1391.66,506.23Zm149.07-161.82,0-.17,0,.16Z"/><circle class="cls-30" cx="1141.32" cy="311.13" r="21.65"/><circle class="cls-31" cx="1141.32" cy="515.15" r="21.65"/><circle class="cls-30" cx="1141.32" cy="406.66" r="21.65"/><circle class="cls-25" cx="1141.99" cy="674.67" r="27.83"/><path class="cls-13" d="M1142,710a35.33,35.33,0,1,1,35.34-35.33A35.36,35.36,0,0,1,1142,710Zm0-55.66a20.33,20.33,0,1,0,20.34,20.33A20.34,20.34,0,0,0,1142,654.34Z"/><path class="cls-13" d="M1140.87,752.05c-34.2,0-56.6,20.45-62.75,26.83l14.41,13.87c4.84-5,22.74-21.38,50-20.68,24.26.6,40.24,14.19,46,20L1202.73,778c-7.45-7.54-28.18-25.16-59.71-25.95Z"/><ellipse class="cls-13" cx="1023.11" cy="652.16" rx="21.76" ry="30.21"/><path class="cls-13" d="M1023.11,687.37c-14.75,0-26.75-15.79-26.75-35.21s12-35.21,26.75-35.21,26.76,15.8,26.76,35.21S1037.87,687.37,1023.11,687.37Zm0-60.42c-9.08,0-16.75,11.54-16.75,25.21s7.67,25.21,16.75,25.21,16.76-11.54,16.76-25.21S1032.19,627,1023.11,627Z"/><ellipse class="cls-2" cx="1030.52" cy="639.71" rx="7.4" ry="10.06"/><ellipse class="cls-2" cx="1013.52" cy="670.72" rx="2.6" ry="3.96"/><ellipse class="cls-13" cx="1250.24" cy="652.16" rx="21.76" ry="30.21"/><path class="cls-13" d="M1250.24,687.37c-14.75,0-26.76-15.79-26.76-35.21s12-35.21,26.76-35.21,26.76,15.8,26.76,35.21S1265,687.37,1250.24,687.37Zm0-60.42c-9.08,0-16.76,11.54-16.76,25.21s7.68,25.21,16.76,25.21S1267,665.83,1267,652.16,1259.32,627,1250.24,627Z"/><ellipse class="cls-2" cx="1257.64" cy="639.71" rx="7.4" ry="10.06"/><ellipse class="cls-2" cx="1240.64" cy="670.72" rx="2.6" ry="3.96"/><path class="cls-32" d="M998.35,695c-35.19,25.36-45.82,58.3-35.44,73.65,8.7,12.86,34.24,16.46,46.67,6.53C1024.52,763.25,1024.94,728.24,998.35,695Z"/><ellipse class="cls-33" cx="977.86" cy="755.3" rx="8.94" ry="12.36" transform="translate(-121.7 191.68) rotate(-10.54)"/></g></svg>